<svg xmlns="http://www.w3.org/2000/svg" xmlns:xlink="http://www.w3.org/1999/xlink" xmlns:s="https://github.com/nturley/netlistsvg" width="452" height="204">
  <style>svg {
    stroke:#000;
    fill:none;
  }
  text {
    fill:#000;
    stroke:none;
    font-size:10px;
    font-weight: bold;
    font-family: "Courier New", monospace;
  }
  .nodelabel {
    text-anchor: middle;
  }
  .inputPortLabel {
    text-anchor: end;
  }
  .splitjoinBody {
    fill:#000;
  }
  .noninv {
    fill:#EEF;
  }</style>
  <g s:type="INV" transform="translate(109,12)" s:width="30" s:height="20" id="cell_$abc$51$auto$blifparse.cc:371:parse_blif$52">
    <s:alias val="INV"/>
    <s:alias val="INV_X1"/>
    <s:alias val="INV_X2"/>
    <s:alias val="INV_X4"/>
    <s:alias val="INV_X8"/>
    <s:alias val="INV_X16"/>
    <s:alias val="INV_X32"/>
    <path d="M0,0 L0,20 L20,10 Z"/>
    <circle cx="23" cy="10" r="3"/>
    <g s:x="0" s:y="10" s:pid="A"/>
    <g s:x="25" s:y="10" s:pid="ZN"/>
  </g>
  <g s:type="NAND2" transform="translate(159,33)" s:width="30" s:height="25" id="cell_$abc$51$auto$blifparse.cc:371:parse_blif$53">
    <s:alias val="NAND2"/>
    <s:alias val="NAND2_X1"/>
    <s:alias val="NAND2_X2"/>
    <s:alias val="NAND2_X4"/>
    <path d="M0,0 L0,25 L15,25 A15 12.5 0 0 0 15,0 Z"/>
    <circle cx="34" cy="12.5" r="3"/>
    <g s:x="0" s:y="5" s:pid="A1"/>
    <g s:x="0" s:y="20" s:pid="A2"/>
    <g s:x="36" s:y="12.5" s:pid="ZN"/>
  </g>
  <g s:type="INV" transform="translate(109,64)" s:width="30" s:height="20" id="cell_$abc$51$auto$blifparse.cc:371:parse_blif$54">
    <s:alias val="INV"/>
    <s:alias val="INV_X1"/>
    <s:alias val="INV_X2"/>
    <s:alias val="INV_X4"/>
    <s:alias val="INV_X8"/>
    <s:alias val="INV_X16"/>
    <s:alias val="INV_X32"/>
    <path d="M0,0 L0,20 L20,10 Z"/>
    <circle cx="23" cy="10" r="3"/>
    <g s:x="0" s:y="10" s:pid="A"/>
    <g s:x="25" s:y="10" s:pid="ZN"/>
  </g>
  <g s:type="NAND2" transform="translate(159,69)" s:width="30" s:height="25" id="cell_$abc$51$auto$blifparse.cc:371:parse_blif$55">
    <s:alias val="NAND2"/>
    <s:alias val="NAND2_X1"/>
    <s:alias val="NAND2_X2"/>
    <s:alias val="NAND2_X4"/>
    <path d="M0,0 L0,25 L15,25 A15 12.5 0 0 0 15,0 Z"/>
    <circle cx="34" cy="12.5" r="3"/>
    <g s:x="0" s:y="5" s:pid="A1"/>
    <g s:x="0" s:y="20" s:pid="A2"/>
    <g s:x="36" s:y="12.5" s:pid="ZN"/>
  </g>
  <g s:type="NAND2" transform="translate(227,40.5)" s:width="30" s:height="25" id="cell_$abc$51$auto$blifparse.cc:371:parse_blif$56">
    <s:alias val="NAND2"/>
    <s:alias val="NAND2_X1"/>
    <s:alias val="NAND2_X2"/>
    <s:alias val="NAND2_X4"/>
    <path d="M0,0 L0,25 L15,25 A15 12.5 0 0 0 15,0 Z"/>
    <circle cx="34" cy="12.5" r="3"/>
    <g s:x="0" s:y="5" s:pid="A1"/>
    <g s:x="0" s:y="20" s:pid="A2"/>
    <g s:x="36" s:y="12.5" s:pid="ZN"/>
  </g>
  <g s:type="XNOR2" transform="translate(225,127.5)" s:width="33" s:height="25" id="cell_$abc$51$auto$blifparse.cc:371:parse_blif$57">
    <s:alias val="XNOR2"/>
    <s:alias val="XNOR2_X1"/>
    <s:alias val="XNOR2_X2"/>
    <s:alias val="XNOR2_X2"/>
    <path d="M3,0 A30 25 0 0 1 3,25 A30 25 0 0 0 33,12.5 A30 25 0 0 0 3,0"/>
    <path d="M0,0 A30 25 0 0 1 0,25"/>
    <circle cx="35" cy="12.5" r="3"/>
    <g s:x="3" s:y="5" s:pid="A"/>
    <g s:x="3" s:y="20" s:pid="B"/>
    <g s:x="38" s:y="12.5" s:pid="ZN"/>
  </g>
  <g s:type="NAND2" transform="translate(303,48)" s:width="30" s:height="25" id="cell_$abc$51$auto$blifparse.cc:371:parse_blif$58">
    <s:alias val="NAND2"/>
    <s:alias val="NAND2_X1"/>
    <s:alias val="NAND2_X2"/>
    <s:alias val="NAND2_X4"/>
    <path d="M0,0 L0,25 L15,25 A15 12.5 0 0 0 15,0 Z"/>
    <circle cx="34" cy="12.5" r="3"/>
    <g s:x="0" s:y="5" s:pid="A1"/>
    <g s:x="0" s:y="20" s:pid="A2"/>
    <g s:x="36" s:y="12.5" s:pid="ZN"/>
  </g>
  <g s:type="OR2" transform="translate(227.66666666666666,92.5)" s:width="30" s:height="25" id="cell_$abc$51$auto$blifparse.cc:371:parse_blif$59">
    <s:alias val="OR2"/>
    <s:alias val="OR2_X1"/>
    <s:alias val="OR2_X2"/>
    <s:alias val="OR2_X4"/>
    <path d="M0,25 L0,25 L15,25 A15 12.5 0 0 0 15,0 L0,0" class="noninv"/>
    <path d="M0,0 A30 25 0 0 1 0,25"/>
    <g s:x="3" s:y="5" s:pid="A1"/>
    <g s:x="3" s:y="20" s:pid="A2"/>
    <g s:x="30" s:y="12.5" s:pid="ZN"/>
  </g>
  <g s:type="NAND2" transform="translate(227,162.5)" s:width="30" s:height="25" id="cell_$abc$51$auto$blifparse.cc:371:parse_blif$60">
    <s:alias val="NAND2"/>
    <s:alias val="NAND2_X1"/>
    <s:alias val="NAND2_X2"/>
    <s:alias val="NAND2_X4"/>
    <path d="M0,0 L0,25 L15,25 A15 12.5 0 0 0 15,0 Z"/>
    <circle cx="34" cy="12.5" r="3"/>
    <g s:x="0" s:y="5" s:pid="A1"/>
    <g s:x="0" s:y="20" s:pid="A2"/>
    <g s:x="36" s:y="12.5" s:pid="ZN"/>
  </g>
  <g s:type="NAND4" transform="translate(303,101.5)" s:width="30" s:height="25" id="cell_$abc$51$auto$blifparse.cc:371:parse_blif$61">
    <s:alias val="NAND4"/>
    <s:alias val="NAND4_X1"/>
    <s:alias val="NAND4_X2"/>
    <s:alias val="NAND4_X4"/>
    <path d="M0,0 L0,25 L15,25 A15 12.5 0 0 0 15,0 Z"/>
    <circle cx="34" cy="12.5" r="3"/>
    <g s:x="0" s:y="3.5" s:pid="A1"/>
    <g s:x="0" s:y="9.5" s:pid="A2"/>
    <g s:x="0" s:y="15.5" s:pid="A3"/>
    <g s:x="0" s:y="21.5" s:pid="A4"/>
    <g s:x="36" s:y="12.5" s:pid="ZN"/>
  </g>
  <g s:type="NAND2" transform="translate(359,94)" s:width="30" s:height="25" id="cell_$abc$51$auto$blifparse.cc:371:parse_blif$62">
    <s:alias val="NAND2"/>
    <s:alias val="NAND2_X1"/>
    <s:alias val="NAND2_X2"/>
    <s:alias val="NAND2_X4"/>
    <path d="M0,0 L0,25 L15,25 A15 12.5 0 0 0 15,0 Z"/>
    <circle cx="34" cy="12.5" r="3"/>
    <g s:x="0" s:y="5" s:pid="A1"/>
    <g s:x="0" s:y="20" s:pid="A2"/>
    <g s:x="36" s:y="12.5" s:pid="ZN"/>
  </g>
  <g s:type="inputExt" transform="translate(12,122.5)" s:width="30" s:height="20" id="cell_n">
    <text x="15" y="-4" class="nodelabel" s:attribute="ref">n</text>
    <s:alias val="$_inputExt_"/>
    <path d="M0,0 L0,20 L15,20 L30,10 L15,0 Z"/>
    <g s:x="28" s:y="10" s:pid="Y"/>
  </g>
  <g s:type="outputExt" transform="translate(410,96.5)" s:width="30" s:height="20" id="cell_out">
    <text x="15" y="-4" class="nodelabel" s:attribute="ref">out</text>
    <s:alias val="$_outputExt_"/>
    <path d="M30,0 L30,20 L15,20 L0,10 L15,0 Z"/>
    <g s:x="0" s:y="10" s:pid="A"/>
  </g>
  <g s:type="split" transform="translate(57,112)" s:width="5" s:height="40" id="cell_$split$,4,5,6,7,">
    <rect width="5" height="80" class="splitjoinBody" s:generic="body"/>
    <s:alias val="$_split_"/>
    <g s:x="0" s:y="20" s:pid="in"/>
    <g transform="translate(4,10)" s:x="4" s:y="10" s:pid="out0">
      <text x="5" y="-4">1</text>
    </g>
    <g transform="translate(4,30)" s:x="4" s:y="10" s:pid="out0">
      <text x="5" y="-4">0</text>
    </g>
    <g transform="translate(4,50)" s:x="4" s:y="10" s:pid="out0">
      <text x="5" y="-4">3</text>
    </g>
    <g transform="translate(4,70)" s:x="4" s:y="10" s:pid="out0">
      <text x="5" y="-4">2</text>
    </g>
  </g>
  <line x1="62" x2="79" y1="122.5" y2="122.5" class="net_5"/>
  <line x1="79" x2="79" y1="122.5" y2="22" class="net_5"/>
  <line x1="79" x2="109" y1="22" y2="22" class="net_5"/>
  <line x1="62" x2="79" y1="122.5" y2="122.5" class="net_5"/>
  <line x1="79" x2="79" y1="122.5" y2="42" class="net_5"/>
  <line x1="79" x2="149" y1="42" y2="42" class="net_5"/>
  <line x1="149" x2="149" y1="42" y2="89" class="net_5"/>
  <circle cx="79" cy="42" r="2" style="fill:#000" class="net_5"/>
  <line x1="149" x2="159" y1="89" y2="89" class="net_5"/>
  <line x1="134" x2="149" y1="22" y2="22" class="net_9"/>
  <line x1="149" x2="149" y1="22" y2="38" class="net_9"/>
  <line x1="149" x2="159" y1="38" y2="38" class="net_9"/>
  <line x1="62" x2="89" y1="142.5" y2="142.5" class="net_4"/>
  <line x1="89" x2="89" y1="142.5" y2="53" class="net_4"/>
  <line x1="89" x2="159" y1="53" y2="53" class="net_4"/>
  <line x1="62" x2="89" y1="142.5" y2="142.5" class="net_4"/>
  <line x1="89" x2="89" y1="142.5" y2="74" class="net_4"/>
  <circle cx="89" cy="74" r="2" style="fill:#000" class="net_4"/>
  <line x1="89" x2="109" y1="74" y2="74" class="net_4"/>
  <line x1="134" x2="159" y1="74" y2="74" class="net_11"/>
  <line x1="195" x2="227" y1="45.5" y2="45.5" class="net_10"/>
  <line x1="195" x2="205" y1="45.5" y2="45.5" class="net_10"/>
  <line x1="205" x2="205" y1="45.5" y2="29.5" class="net_10"/>
  <line x1="205" x2="293" y1="29.5" y2="29.5" class="net_10"/>
  <line x1="293" x2="293" y1="29.5" y2="111" class="net_10"/>
  <circle cx="205" cy="45.5" r="2" style="fill:#000" class="net_10"/>
  <line x1="293" x2="303" y1="111" y2="111" class="net_10"/>
  <line x1="195" x2="205" y1="81.5" y2="81.5" class="net_12"/>
  <line x1="205" x2="205" y1="81.5" y2="60.5" class="net_12"/>
  <circle cx="205" cy="81.5" r="2" style="fill:#000" class="net_12"/>
  <line x1="205" x2="227" y1="60.5" y2="60.5" class="net_12"/>
  <line x1="195" x2="273" y1="81.5" y2="81.5" class="net_12"/>
  <line x1="273" x2="273" y1="81.5" y2="117" class="net_12"/>
  <line x1="273" x2="303" y1="117" y2="117" class="net_12"/>
  <line x1="62" x2="99" y1="162.5" y2="162.5" class="net_7"/>
  <line x1="99" x2="99" y1="162.5" y2="132.5" class="net_7"/>
  <line x1="99" x2="228" y1="132.5" y2="132.5" class="net_7"/>
  <line x1="62" x2="99" y1="162.5" y2="162.5" class="net_7"/>
  <line x1="99" x2="99" y1="162.5" y2="132.5" class="net_7"/>
  <line x1="99" x2="205" y1="132.5" y2="132.5" class="net_7"/>
  <line x1="205" x2="205" y1="132.5" y2="97.5" class="net_7"/>
  <circle cx="205" cy="132.5" r="2" style="fill:#000" class="net_7"/>
  <line x1="205" x2="230.66666666666666" y1="97.5" y2="97.5" class="net_7"/>
  <line x1="62" x2="99" y1="162.5" y2="162.5" class="net_7"/>
  <line x1="99" x2="99" y1="162.5" y2="132.5" class="net_7"/>
  <line x1="99" x2="205" y1="132.5" y2="132.5" class="net_7"/>
  <line x1="205" x2="205" y1="132.5" y2="167.5" class="net_7"/>
  <line x1="205" x2="227" y1="167.5" y2="167.5" class="net_7"/>
  <line x1="62" x2="215" y1="182.5" y2="182.5" class="net_6"/>
  <line x1="215" x2="215" y1="182.5" y2="147.5" class="net_6"/>
  <circle cx="215" cy="147.5" r="2" style="fill:#000" class="net_6"/>
  <line x1="215" x2="228" y1="147.5" y2="147.5" class="net_6"/>
  <line x1="62" x2="215" y1="182.5" y2="182.5" class="net_6"/>
  <line x1="215" x2="215" y1="182.5" y2="112.5" class="net_6"/>
  <circle cx="215" cy="182.5" r="2" style="fill:#000" class="net_6"/>
  <line x1="215" x2="230.66666666666666" y1="112.5" y2="112.5" class="net_6"/>
  <line x1="62" x2="227" y1="182.5" y2="182.5" class="net_6"/>
  <line x1="263" x2="303" y1="53" y2="53" class="net_13"/>
  <line x1="263" x2="283" y1="140" y2="140" class="net_14"/>
  <line x1="283" x2="283" y1="140" y2="68" class="net_14"/>
  <line x1="283" x2="303" y1="68" y2="68" class="net_14"/>
  <line x1="257.66666666666663" x2="303" y1="105" y2="105" class="net_16"/>
  <line x1="263" x2="293" y1="175" y2="175" class="net_17"/>
  <line x1="293" x2="293" y1="175" y2="123" class="net_17"/>
  <line x1="293" x2="303" y1="123" y2="123" class="net_17"/>
  <line x1="339" x2="349" y1="60.5" y2="60.5" class="net_15"/>
  <line x1="349" x2="349" y1="60.5" y2="99" class="net_15"/>
  <line x1="349" x2="359" y1="99" y2="99" class="net_15"/>
  <line x1="339" x2="359" y1="114" y2="114" class="net_18"/>
  <line x1="395" x2="410" y1="106.5" y2="106.5" class="net_8"/>
  <line x1="40" x2="57" y1="132.5" y2="132.5" class="net_4,5,6,7"/>
</svg>
