<svg xmlns="http://www.w3.org/2000/svg" xmlns:xlink="http://www.w3.org/1999/xlink" xmlns:s="https://github.com/nturley/netlistsvg" width="702" height="638">
  <style>svg {
    stroke:#000;
    fill:none;
  }
  text {
    fill:#000;
    stroke:none;
    font-size:10px;
    font-weight: bold;
    font-family: "Courier New", monospace;
  }
  .nodelabel {
    text-anchor: middle;
  }
  .inputPortLabel {
    text-anchor: end;
  }
  .splitjoinBody {
    fill:#000;
  }
  .noninv {
    fill:#EEF;
  }</style>
  <g s:type="INV" transform="translate(203,291.5)" s:width="30" s:height="20" id="cell_$abc$399$auto$blifparse.cc:371:parse_blif$400">
    <s:alias val="INV"/>
    <s:alias val="INV_X1"/>
    <s:alias val="INV_X2"/>
    <s:alias val="INV_X4"/>
    <s:alias val="INV_X8"/>
    <s:alias val="INV_X16"/>
    <s:alias val="INV_X32"/>
    <path d="M0,0 L0,20 L20,10 Z"/>
    <circle cx="23" cy="10" r="3"/>
    <g s:x="0" s:y="10" s:pid="A"/>
    <g s:x="25" s:y="10" s:pid="ZN"/>
  </g>
  <g s:type="NOR2" transform="translate(283,22.5)" s:width="33" s:height="25" id="cell_$abc$399$auto$blifparse.cc:371:parse_blif$401">
    <s:alias val="NOR2"/>
    <s:alias val="NOR2_X1"/>
    <s:alias val="NOR2_X2"/>
    <s:alias val="NOR2_X4"/>
    <path d="M0,25 L0,25 L15,25 A15 12.5 0 0 0 15,0 L0,0"/>
    <path d="M0,0 A30 25 0 0 1 0,25"/>
    <circle cx="34" cy="12.5" r="3"/>
    <g s:x="3" s:y="5" s:pid="A1"/>
    <g s:x="3" s:y="20" s:pid="A2"/>
    <g s:x="36" s:y="12.5" s:pid="ZN"/>
  </g>
  <g s:type="NOR2" transform="translate(283,153)" s:width="33" s:height="25" id="cell_$abc$399$auto$blifparse.cc:371:parse_blif$402">
    <s:alias val="NOR2"/>
    <s:alias val="NOR2_X1"/>
    <s:alias val="NOR2_X2"/>
    <s:alias val="NOR2_X4"/>
    <path d="M0,25 L0,25 L15,25 A15 12.5 0 0 0 15,0 L0,0"/>
    <path d="M0,0 A30 25 0 0 1 0,25"/>
    <circle cx="34" cy="12.5" r="3"/>
    <g s:x="3" s:y="5" s:pid="A1"/>
    <g s:x="3" s:y="20" s:pid="A2"/>
    <g s:x="36" s:y="12.5" s:pid="ZN"/>
  </g>
  <g s:type="NOR2" transform="translate(485,30)" s:width="33" s:height="25" id="cell_$abc$399$auto$blifparse.cc:371:parse_blif$403">
    <s:alias val="NOR2"/>
    <s:alias val="NOR2_X1"/>
    <s:alias val="NOR2_X2"/>
    <s:alias val="NOR2_X4"/>
    <path d="M0,25 L0,25 L15,25 A15 12.5 0 0 0 15,0 L0,0"/>
    <path d="M0,0 A30 25 0 0 1 0,25"/>
    <circle cx="34" cy="12.5" r="3"/>
    <g s:x="3" s:y="5" s:pid="A1"/>
    <g s:x="3" s:y="20" s:pid="A2"/>
    <g s:x="36" s:y="12.5" s:pid="ZN"/>
  </g>
  <g s:type="INV" transform="translate(203,321.5)" s:width="30" s:height="20" id="cell_$abc$399$auto$blifparse.cc:371:parse_blif$404">
    <s:alias val="INV"/>
    <s:alias val="INV_X1"/>
    <s:alias val="INV_X2"/>
    <s:alias val="INV_X4"/>
    <s:alias val="INV_X8"/>
    <s:alias val="INV_X16"/>
    <s:alias val="INV_X32"/>
    <path d="M0,0 L0,20 L20,10 Z"/>
    <circle cx="23" cy="10" r="3"/>
    <g s:x="0" s:y="10" s:pid="A"/>
    <g s:x="25" s:y="10" s:pid="ZN"/>
  </g>
  <g s:type="NOR2" transform="translate(283,107)" s:width="33" s:height="25" id="cell_$abc$399$auto$blifparse.cc:371:parse_blif$405">
    <s:alias val="NOR2"/>
    <s:alias val="NOR2_X1"/>
    <s:alias val="NOR2_X2"/>
    <s:alias val="NOR2_X4"/>
    <path d="M0,25 L0,25 L15,25 A15 12.5 0 0 0 15,0 L0,0"/>
    <path d="M0,0 A30 25 0 0 1 0,25"/>
    <circle cx="34" cy="12.5" r="3"/>
    <g s:x="3" s:y="5" s:pid="A1"/>
    <g s:x="3" s:y="20" s:pid="A2"/>
    <g s:x="36" s:y="12.5" s:pid="ZN"/>
  </g>
  <g s:type="NOR2" transform="translate(485,80)" s:width="33" s:height="25" id="cell_$abc$399$auto$blifparse.cc:371:parse_blif$406">
    <s:alias val="NOR2"/>
    <s:alias val="NOR2_X1"/>
    <s:alias val="NOR2_X2"/>
    <s:alias val="NOR2_X4"/>
    <path d="M0,25 L0,25 L15,25 A15 12.5 0 0 0 15,0 L0,0"/>
    <path d="M0,0 A30 25 0 0 1 0,25"/>
    <circle cx="34" cy="12.5" r="3"/>
    <g s:x="3" s:y="5" s:pid="A1"/>
    <g s:x="3" s:y="20" s:pid="A2"/>
    <g s:x="36" s:y="12.5" s:pid="ZN"/>
  </g>
  <g s:type="NAND2" transform="translate(571,37.5)" s:width="30" s:height="25" id="cell_$abc$399$auto$blifparse.cc:371:parse_blif$407">
    <s:alias val="NAND2"/>
    <s:alias val="NAND2_X1"/>
    <s:alias val="NAND2_X2"/>
    <s:alias val="NAND2_X4"/>
    <path d="M0,0 L0,25 L15,25 A15 12.5 0 0 0 15,0 Z"/>
    <circle cx="34" cy="12.5" r="3"/>
    <g s:x="0" s:y="5" s:pid="A1"/>
    <g s:x="0" s:y="20" s:pid="A2"/>
    <g s:x="36" s:y="12.5" s:pid="ZN"/>
  </g>
  <g s:type="INV" transform="translate(392,110)" s:width="30" s:height="20" id="cell_$abc$399$auto$blifparse.cc:371:parse_blif$408">
    <s:alias val="INV"/>
    <s:alias val="INV_X1"/>
    <s:alias val="INV_X2"/>
    <s:alias val="INV_X4"/>
    <s:alias val="INV_X8"/>
    <s:alias val="INV_X16"/>
    <s:alias val="INV_X32"/>
    <path d="M0,0 L0,20 L20,10 Z"/>
    <circle cx="23" cy="10" r="3"/>
    <g s:x="0" s:y="10" s:pid="A"/>
    <g s:x="25" s:y="10" s:pid="ZN"/>
  </g>
  <g s:type="INV" transform="translate(203,261.5)" s:width="30" s:height="20" id="cell_$abc$399$auto$blifparse.cc:371:parse_blif$409">
    <s:alias val="INV"/>
    <s:alias val="INV_X1"/>
    <s:alias val="INV_X2"/>
    <s:alias val="INV_X4"/>
    <s:alias val="INV_X8"/>
    <s:alias val="INV_X16"/>
    <s:alias val="INV_X32"/>
    <path d="M0,0 L0,20 L20,10 Z"/>
    <circle cx="23" cy="10" r="3"/>
    <g s:x="0" s:y="10" s:pid="A"/>
    <g s:x="25" s:y="10" s:pid="ZN"/>
  </g>
  <g s:type="NAND2" transform="translate(485,115)" s:width="30" s:height="25" id="cell_$abc$399$auto$blifparse.cc:371:parse_blif$410">
    <s:alias val="NAND2"/>
    <s:alias val="NAND2_X1"/>
    <s:alias val="NAND2_X2"/>
    <s:alias val="NAND2_X4"/>
    <path d="M0,0 L0,25 L15,25 A15 12.5 0 0 0 15,0 Z"/>
    <circle cx="34" cy="12.5" r="3"/>
    <g s:x="0" s:y="5" s:pid="A1"/>
    <g s:x="0" s:y="20" s:pid="A2"/>
    <g s:x="36" s:y="12.5" s:pid="ZN"/>
  </g>
  <g s:type="NAND2" transform="translate(571,72.5)" s:width="30" s:height="25" id="cell_$abc$399$auto$blifparse.cc:371:parse_blif$411">
    <s:alias val="NAND2"/>
    <s:alias val="NAND2_X1"/>
    <s:alias val="NAND2_X2"/>
    <s:alias val="NAND2_X4"/>
    <path d="M0,0 L0,25 L15,25 A15 12.5 0 0 0 15,0 Z"/>
    <circle cx="34" cy="12.5" r="3"/>
    <g s:x="0" s:y="5" s:pid="A1"/>
    <g s:x="0" s:y="20" s:pid="A2"/>
    <g s:x="36" s:y="12.5" s:pid="ZN"/>
  </g>
  <g s:type="INV" transform="translate(392,153)" s:width="30" s:height="20" id="cell_$abc$399$auto$blifparse.cc:371:parse_blif$412">
    <s:alias val="INV"/>
    <s:alias val="INV_X1"/>
    <s:alias val="INV_X2"/>
    <s:alias val="INV_X4"/>
    <s:alias val="INV_X8"/>
    <s:alias val="INV_X16"/>
    <s:alias val="INV_X32"/>
    <path d="M0,0 L0,20 L20,10 Z"/>
    <circle cx="23" cy="10" r="3"/>
    <g s:x="0" s:y="10" s:pid="A"/>
    <g s:x="25" s:y="10" s:pid="ZN"/>
  </g>
  <g s:type="NAND2" transform="translate(485,158)" s:width="30" s:height="25" id="cell_$abc$399$auto$blifparse.cc:371:parse_blif$413">
    <s:alias val="NAND2"/>
    <s:alias val="NAND2_X1"/>
    <s:alias val="NAND2_X2"/>
    <s:alias val="NAND2_X4"/>
    <path d="M0,0 L0,25 L15,25 A15 12.5 0 0 0 15,0 Z"/>
    <circle cx="34" cy="12.5" r="3"/>
    <g s:x="0" s:y="5" s:pid="A1"/>
    <g s:x="0" s:y="20" s:pid="A2"/>
    <g s:x="36" s:y="12.5" s:pid="ZN"/>
  </g>
  <g s:type="NAND2" transform="translate(283,380)" s:width="30" s:height="25" id="cell_$abc$399$auto$blifparse.cc:371:parse_blif$414">
    <s:alias val="NAND2"/>
    <s:alias val="NAND2_X1"/>
    <s:alias val="NAND2_X2"/>
    <s:alias val="NAND2_X4"/>
    <path d="M0,0 L0,25 L15,25 A15 12.5 0 0 0 15,0 Z"/>
    <circle cx="34" cy="12.5" r="3"/>
    <g s:x="0" s:y="5" s:pid="A1"/>
    <g s:x="0" s:y="20" s:pid="A2"/>
    <g s:x="36" s:y="12.5" s:pid="ZN"/>
  </g>
  <g s:type="NAND2" transform="translate(389,230.5)" s:width="30" s:height="25" id="cell_$abc$399$auto$blifparse.cc:371:parse_blif$415">
    <s:alias val="NAND2"/>
    <s:alias val="NAND2_X1"/>
    <s:alias val="NAND2_X2"/>
    <s:alias val="NAND2_X4"/>
    <path d="M0,0 L0,25 L15,25 A15 12.5 0 0 0 15,0 Z"/>
    <circle cx="34" cy="12.5" r="3"/>
    <g s:x="0" s:y="5" s:pid="A1"/>
    <g s:x="0" s:y="20" s:pid="A2"/>
    <g s:x="36" s:y="12.5" s:pid="ZN"/>
  </g>
  <g s:type="NAND2" transform="translate(571,165.5)" s:width="30" s:height="25" id="cell_$abc$399$auto$blifparse.cc:371:parse_blif$416">
    <s:alias val="NAND2"/>
    <s:alias val="NAND2_X1"/>
    <s:alias val="NAND2_X2"/>
    <s:alias val="NAND2_X4"/>
    <path d="M0,0 L0,25 L15,25 A15 12.5 0 0 0 15,0 Z"/>
    <circle cx="34" cy="12.5" r="3"/>
    <g s:x="0" s:y="5" s:pid="A1"/>
    <g s:x="0" s:y="20" s:pid="A2"/>
    <g s:x="36" s:y="12.5" s:pid="ZN"/>
  </g>
  <g s:type="NOR2" transform="translate(283,415)" s:width="33" s:height="25" id="cell_$abc$399$auto$blifparse.cc:371:parse_blif$417">
    <s:alias val="NOR2"/>
    <s:alias val="NOR2_X1"/>
    <s:alias val="NOR2_X2"/>
    <s:alias val="NOR2_X4"/>
    <path d="M0,25 L0,25 L15,25 A15 12.5 0 0 0 15,0 L0,0"/>
    <path d="M0,0 A30 25 0 0 1 0,25"/>
    <circle cx="34" cy="12.5" r="3"/>
    <g s:x="3" s:y="5" s:pid="A1"/>
    <g s:x="3" s:y="20" s:pid="A2"/>
    <g s:x="36" s:y="12.5" s:pid="ZN"/>
  </g>
  <g s:type="NOR2" transform="translate(389,372.5)" s:width="33" s:height="25" id="cell_$abc$399$auto$blifparse.cc:371:parse_blif$418">
    <s:alias val="NOR2"/>
    <s:alias val="NOR2_X1"/>
    <s:alias val="NOR2_X2"/>
    <s:alias val="NOR2_X4"/>
    <path d="M0,25 L0,25 L15,25 A15 12.5 0 0 0 15,0 L0,0"/>
    <path d="M0,0 A30 25 0 0 1 0,25"/>
    <circle cx="34" cy="12.5" r="3"/>
    <g s:x="3" s:y="5" s:pid="A1"/>
    <g s:x="3" s:y="20" s:pid="A2"/>
    <g s:x="36" s:y="12.5" s:pid="ZN"/>
  </g>
  <g s:type="NAND2" transform="translate(283,188)" s:width="30" s:height="25" id="cell_$abc$399$auto$blifparse.cc:371:parse_blif$419">
    <s:alias val="NAND2"/>
    <s:alias val="NAND2_X1"/>
    <s:alias val="NAND2_X2"/>
    <s:alias val="NAND2_X4"/>
    <path d="M0,0 L0,25 L15,25 A15 12.5 0 0 0 15,0 Z"/>
    <circle cx="34" cy="12.5" r="3"/>
    <g s:x="0" s:y="5" s:pid="A1"/>
    <g s:x="0" s:y="20" s:pid="A2"/>
    <g s:x="36" s:y="12.5" s:pid="ZN"/>
  </g>
  <g s:type="INV" transform="translate(203,351.5)" s:width="30" s:height="20" id="cell_$abc$399$auto$blifparse.cc:371:parse_blif$420">
    <s:alias val="INV"/>
    <s:alias val="INV_X1"/>
    <s:alias val="INV_X2"/>
    <s:alias val="INV_X4"/>
    <s:alias val="INV_X8"/>
    <s:alias val="INV_X16"/>
    <s:alias val="INV_X32"/>
    <path d="M0,0 L0,20 L20,10 Z"/>
    <circle cx="23" cy="10" r="3"/>
    <g s:x="0" s:y="10" s:pid="A"/>
    <g s:x="25" s:y="10" s:pid="ZN"/>
  </g>
  <g s:type="NAND2" transform="translate(283,450)" s:width="30" s:height="25" id="cell_$abc$399$auto$blifparse.cc:371:parse_blif$421">
    <s:alias val="NAND2"/>
    <s:alias val="NAND2_X1"/>
    <s:alias val="NAND2_X2"/>
    <s:alias val="NAND2_X4"/>
    <path d="M0,0 L0,25 L15,25 A15 12.5 0 0 0 15,0 Z"/>
    <circle cx="34" cy="12.5" r="3"/>
    <g s:x="0" s:y="5" s:pid="A1"/>
    <g s:x="0" s:y="20" s:pid="A2"/>
    <g s:x="36" s:y="12.5" s:pid="ZN"/>
  </g>
  <g s:type="NOR2" transform="translate(389,195.5)" s:width="33" s:height="25" id="cell_$abc$399$auto$blifparse.cc:371:parse_blif$422">
    <s:alias val="NOR2"/>
    <s:alias val="NOR2_X1"/>
    <s:alias val="NOR2_X2"/>
    <s:alias val="NOR2_X4"/>
    <path d="M0,25 L0,25 L15,25 A15 12.5 0 0 0 15,0 L0,0"/>
    <path d="M0,0 A30 25 0 0 1 0,25"/>
    <circle cx="34" cy="12.5" r="3"/>
    <g s:x="3" s:y="5" s:pid="A1"/>
    <g s:x="3" s:y="20" s:pid="A2"/>
    <g s:x="36" s:y="12.5" s:pid="ZN"/>
  </g>
  <g s:type="NOR2" transform="translate(485,380)" s:width="33" s:height="25" id="cell_$abc$399$auto$blifparse.cc:371:parse_blif$423">
    <s:alias val="NOR2"/>
    <s:alias val="NOR2_X1"/>
    <s:alias val="NOR2_X2"/>
    <s:alias val="NOR2_X4"/>
    <path d="M0,25 L0,25 L15,25 A15 12.5 0 0 0 15,0 L0,0"/>
    <path d="M0,0 A30 25 0 0 1 0,25"/>
    <circle cx="34" cy="12.5" r="3"/>
    <g s:x="3" s:y="5" s:pid="A1"/>
    <g s:x="3" s:y="20" s:pid="A2"/>
    <g s:x="36" s:y="12.5" s:pid="ZN"/>
  </g>
  <g s:type="NOR2" transform="translate(283,485)" s:width="33" s:height="25" id="cell_$abc$399$auto$blifparse.cc:371:parse_blif$424">
    <s:alias val="NOR2"/>
    <s:alias val="NOR2_X1"/>
    <s:alias val="NOR2_X2"/>
    <s:alias val="NOR2_X4"/>
    <path d="M0,25 L0,25 L15,25 A15 12.5 0 0 0 15,0 L0,0"/>
    <path d="M0,0 A30 25 0 0 1 0,25"/>
    <circle cx="34" cy="12.5" r="3"/>
    <g s:x="3" s:y="5" s:pid="A1"/>
    <g s:x="3" s:y="20" s:pid="A2"/>
    <g s:x="36" s:y="12.5" s:pid="ZN"/>
  </g>
  <g s:type="NAND2" transform="translate(283,520)" s:width="30" s:height="25" id="cell_$abc$399$auto$blifparse.cc:371:parse_blif$425">
    <s:alias val="NAND2"/>
    <s:alias val="NAND2_X1"/>
    <s:alias val="NAND2_X2"/>
    <s:alias val="NAND2_X4"/>
    <path d="M0,0 L0,25 L15,25 A15 12.5 0 0 0 15,0 Z"/>
    <circle cx="34" cy="12.5" r="3"/>
    <g s:x="0" s:y="5" s:pid="A1"/>
    <g s:x="0" s:y="20" s:pid="A2"/>
    <g s:x="36" s:y="12.5" s:pid="ZN"/>
  </g>
  <g s:type="NAND2" transform="translate(389,492.5)" s:width="30" s:height="25" id="cell_$abc$399$auto$blifparse.cc:371:parse_blif$426">
    <s:alias val="NAND2"/>
    <s:alias val="NAND2_X1"/>
    <s:alias val="NAND2_X2"/>
    <s:alias val="NAND2_X4"/>
    <path d="M0,0 L0,25 L15,25 A15 12.5 0 0 0 15,0 Z"/>
    <circle cx="34" cy="12.5" r="3"/>
    <g s:x="0" s:y="5" s:pid="A1"/>
    <g s:x="0" s:y="20" s:pid="A2"/>
    <g s:x="36" s:y="12.5" s:pid="ZN"/>
  </g>
  <g s:type="NAND2" transform="translate(485,500)" s:width="30" s:height="25" id="cell_$abc$399$auto$blifparse.cc:371:parse_blif$427">
    <s:alias val="NAND2"/>
    <s:alias val="NAND2_X1"/>
    <s:alias val="NAND2_X2"/>
    <s:alias val="NAND2_X4"/>
    <path d="M0,0 L0,25 L15,25 A15 12.5 0 0 0 15,0 Z"/>
    <circle cx="34" cy="12.5" r="3"/>
    <g s:x="0" s:y="5" s:pid="A1"/>
    <g s:x="0" s:y="20" s:pid="A2"/>
    <g s:x="36" s:y="12.5" s:pid="ZN"/>
  </g>
  <g s:type="NAND2" transform="translate(571,387.5)" s:width="30" s:height="25" id="cell_$abc$399$auto$blifparse.cc:371:parse_blif$428">
    <s:alias val="NAND2"/>
    <s:alias val="NAND2_X1"/>
    <s:alias val="NAND2_X2"/>
    <s:alias val="NAND2_X4"/>
    <path d="M0,0 L0,25 L15,25 A15 12.5 0 0 0 15,0 Z"/>
    <circle cx="34" cy="12.5" r="3"/>
    <g s:x="0" s:y="5" s:pid="A1"/>
    <g s:x="0" s:y="20" s:pid="A2"/>
    <g s:x="36" s:y="12.5" s:pid="ZN"/>
  </g>
  <g s:type="INV" transform="translate(488,467.5)" s:width="30" s:height="20" id="cell_$abc$399$auto$blifparse.cc:371:parse_blif$429">
    <s:alias val="INV"/>
    <s:alias val="INV_X1"/>
    <s:alias val="INV_X2"/>
    <s:alias val="INV_X4"/>
    <s:alias val="INV_X8"/>
    <s:alias val="INV_X16"/>
    <s:alias val="INV_X32"/>
    <path d="M0,0 L0,20 L20,10 Z"/>
    <circle cx="23" cy="10" r="3"/>
    <g s:x="0" s:y="10" s:pid="A"/>
    <g s:x="25" s:y="10" s:pid="ZN"/>
  </g>
  <g s:type="NAND2" transform="translate(389,326.5)" s:width="30" s:height="25" id="cell_$abc$399$auto$blifparse.cc:371:parse_blif$430">
    <s:alias val="NAND2"/>
    <s:alias val="NAND2_X1"/>
    <s:alias val="NAND2_X2"/>
    <s:alias val="NAND2_X4"/>
    <path d="M0,0 L0,25 L15,25 A15 12.5 0 0 0 15,0 Z"/>
    <circle cx="34" cy="12.5" r="3"/>
    <g s:x="0" s:y="5" s:pid="A1"/>
    <g s:x="0" s:y="20" s:pid="A2"/>
    <g s:x="36" s:y="12.5" s:pid="ZN"/>
  </g>
  <g s:type="NOR2" transform="translate(485,430)" s:width="33" s:height="25" id="cell_$abc$399$auto$blifparse.cc:371:parse_blif$431">
    <s:alias val="NOR2"/>
    <s:alias val="NOR2_X1"/>
    <s:alias val="NOR2_X2"/>
    <s:alias val="NOR2_X4"/>
    <path d="M0,25 L0,25 L15,25 A15 12.5 0 0 0 15,0 L0,0"/>
    <path d="M0,0 A30 25 0 0 1 0,25"/>
    <circle cx="34" cy="12.5" r="3"/>
    <g s:x="3" s:y="5" s:pid="A1"/>
    <g s:x="3" s:y="20" s:pid="A2"/>
    <g s:x="36" s:y="12.5" s:pid="ZN"/>
  </g>
  <g s:type="NOR2" transform="translate(571,422.5)" s:width="33" s:height="25" id="cell_$abc$399$auto$blifparse.cc:371:parse_blif$432">
    <s:alias val="NOR2"/>
    <s:alias val="NOR2_X1"/>
    <s:alias val="NOR2_X2"/>
    <s:alias val="NOR2_X4"/>
    <path d="M0,25 L0,25 L15,25 A15 12.5 0 0 0 15,0 L0,0"/>
    <path d="M0,0 A30 25 0 0 1 0,25"/>
    <circle cx="34" cy="12.5" r="3"/>
    <g s:x="3" s:y="5" s:pid="A1"/>
    <g s:x="3" s:y="20" s:pid="A2"/>
    <g s:x="36" s:y="12.5" s:pid="ZN"/>
  </g>
  <g s:type="NOR2" transform="translate(283,555)" s:width="33" s:height="25" id="cell_$abc$399$auto$blifparse.cc:371:parse_blif$433">
    <s:alias val="NOR2"/>
    <s:alias val="NOR2_X1"/>
    <s:alias val="NOR2_X2"/>
    <s:alias val="NOR2_X4"/>
    <path d="M0,25 L0,25 L15,25 A15 12.5 0 0 0 15,0 L0,0"/>
    <path d="M0,0 A30 25 0 0 1 0,25"/>
    <circle cx="34" cy="12.5" r="3"/>
    <g s:x="3" s:y="5" s:pid="A1"/>
    <g s:x="3" s:y="20" s:pid="A2"/>
    <g s:x="36" s:y="12.5" s:pid="ZN"/>
  </g>
  <g s:type="NOR2" transform="translate(389,547.5)" s:width="33" s:height="25" id="cell_$abc$399$auto$blifparse.cc:371:parse_blif$434">
    <s:alias val="NOR2"/>
    <s:alias val="NOR2_X1"/>
    <s:alias val="NOR2_X2"/>
    <s:alias val="NOR2_X4"/>
    <path d="M0,25 L0,25 L15,25 A15 12.5 0 0 0 15,0 L0,0"/>
    <path d="M0,0 A30 25 0 0 1 0,25"/>
    <circle cx="34" cy="12.5" r="3"/>
    <g s:x="3" s:y="5" s:pid="A1"/>
    <g s:x="3" s:y="20" s:pid="A2"/>
    <g s:x="36" s:y="12.5" s:pid="ZN"/>
  </g>
  <g s:type="NOR2" transform="translate(485,555)" s:width="33" s:height="25" id="cell_$abc$399$auto$blifparse.cc:371:parse_blif$435">
    <s:alias val="NOR2"/>
    <s:alias val="NOR2_X1"/>
    <s:alias val="NOR2_X2"/>
    <s:alias val="NOR2_X4"/>
    <path d="M0,25 L0,25 L15,25 A15 12.5 0 0 0 15,0 L0,0"/>
    <path d="M0,0 A30 25 0 0 1 0,25"/>
    <circle cx="34" cy="12.5" r="3"/>
    <g s:x="3" s:y="5" s:pid="A1"/>
    <g s:x="3" s:y="20" s:pid="A2"/>
    <g s:x="36" s:y="12.5" s:pid="ZN"/>
  </g>
  <g s:type="NOR2" transform="translate(571,457.5)" s:width="33" s:height="25" id="cell_$abc$399$auto$blifparse.cc:371:parse_blif$436">
    <s:alias val="NOR2"/>
    <s:alias val="NOR2_X1"/>
    <s:alias val="NOR2_X2"/>
    <s:alias val="NOR2_X4"/>
    <path d="M0,25 L0,25 L15,25 A15 12.5 0 0 0 15,0 L0,0"/>
    <path d="M0,0 A30 25 0 0 1 0,25"/>
    <circle cx="34" cy="12.5" r="3"/>
    <g s:x="3" s:y="5" s:pid="A1"/>
    <g s:x="3" s:y="20" s:pid="A2"/>
    <g s:x="36" s:y="12.5" s:pid="ZN"/>
  </g>
  <g s:type="NOR2" transform="translate(389,601)" s:width="33" s:height="25" id="cell_$abc$399$auto$blifparse.cc:371:parse_blif$437">
    <s:alias val="NOR2"/>
    <s:alias val="NOR2_X1"/>
    <s:alias val="NOR2_X2"/>
    <s:alias val="NOR2_X4"/>
    <path d="M0,25 L0,25 L15,25 A15 12.5 0 0 0 15,0 L0,0"/>
    <path d="M0,0 A30 25 0 0 1 0,25"/>
    <circle cx="34" cy="12.5" r="3"/>
    <g s:x="3" s:y="5" s:pid="A1"/>
    <g s:x="3" s:y="20" s:pid="A2"/>
    <g s:x="36" s:y="12.5" s:pid="ZN"/>
  </g>
  <g s:type="NOR2" transform="translate(485,593.5)" s:width="33" s:height="25" id="cell_$abc$399$auto$blifparse.cc:371:parse_blif$438">
    <s:alias val="NOR2"/>
    <s:alias val="NOR2_X1"/>
    <s:alias val="NOR2_X2"/>
    <s:alias val="NOR2_X4"/>
    <path d="M0,25 L0,25 L15,25 A15 12.5 0 0 0 15,0 L0,0"/>
    <path d="M0,0 A30 25 0 0 1 0,25"/>
    <circle cx="34" cy="12.5" r="3"/>
    <g s:x="3" s:y="5" s:pid="A1"/>
    <g s:x="3" s:y="20" s:pid="A2"/>
    <g s:x="36" s:y="12.5" s:pid="ZN"/>
  </g>
  <g s:type="NAND2" transform="translate(571,492.5)" s:width="30" s:height="25" id="cell_$abc$399$auto$blifparse.cc:371:parse_blif$439">
    <s:alias val="NAND2"/>
    <s:alias val="NAND2_X1"/>
    <s:alias val="NAND2_X2"/>
    <s:alias val="NAND2_X4"/>
    <path d="M0,0 L0,25 L15,25 A15 12.5 0 0 0 15,0 Z"/>
    <circle cx="34" cy="12.5" r="3"/>
    <g s:x="0" s:y="5" s:pid="A1"/>
    <g s:x="0" s:y="20" s:pid="A2"/>
    <g s:x="36" s:y="12.5" s:pid="ZN"/>
  </g>
  <g s:type="inputExt" transform="translate(12,22.5)" s:width="30" s:height="20" id="cell_input_binary_number">
    <text x="15" y="-4" class="nodelabel" s:attribute="ref">input_binary_number</text>
    <s:alias val="$_inputExt_"/>
    <path d="M0,0 L0,20 L15,20 L30,10 L15,0 Z"/>
    <g s:x="28" s:y="10" s:pid="Y"/>
  </g>
  <g s:type="outputExt" transform="translate(660,340)" s:width="30" s:height="20" id="cell_out">
    <text x="15" y="-4" class="nodelabel" s:attribute="ref">out</text>
    <s:alias val="$_outputExt_"/>
    <path d="M30,0 L30,20 L15,20 L0,10 L15,0 Z"/>
    <g s:x="0" s:y="10" s:pid="A"/>
  </g>
  <g s:type="join" transform="translate(637,329.5)" s:width="4" s:height="40" id="cell_$join$,8,9,10,11,12,13,14,">
    <rect width="5" height="140" class="splitjoinBody" s:generic="body"/>
    <s:alias val="$_join_"/>
    <g s:x="5" s:y="20" s:pid="out"/>
    <g transform="translate(0,10)" s:x="0" s:y="10" s:pid="in0">
      <text x="-3" y="-4" class="inputPortLabel">0</text>
    </g>
    <g transform="translate(0,30)" s:x="0" s:y="10" s:pid="in0">
      <text x="-3" y="-4" class="inputPortLabel">1</text>
    </g>
    <g transform="translate(0,50)" s:x="0" s:y="10" s:pid="in0">
      <text x="-3" y="-4" class="inputPortLabel">2</text>
    </g>
    <g transform="translate(0,70)" s:x="0" s:y="10" s:pid="in0">
      <text x="-3" y="-4" class="inputPortLabel">3</text>
    </g>
    <g transform="translate(0,90)" s:x="0" s:y="10" s:pid="in0">
      <text x="-3" y="-4" class="inputPortLabel">4</text>
    </g>
    <g transform="translate(0,110)" s:x="0" s:y="10" s:pid="in0">
      <text x="-3" y="-4" class="inputPortLabel">5</text>
    </g>
    <g transform="translate(0,130)" s:x="0" s:y="10" s:pid="in0">
      <text x="-3" y="-4" class="inputPortLabel">6</text>
    </g>
  </g>
  <g s:type="split" transform="translate(141,12)" s:width="5" s:height="40" id="cell_$split$,4,5,6,7,">
    <rect width="5" height="80" class="splitjoinBody" s:generic="body"/>
    <s:alias val="$_split_"/>
    <g s:x="0" s:y="20" s:pid="in"/>
    <g transform="translate(4,10)" s:x="4" s:y="10" s:pid="out0">
      <text x="5" y="-4">1</text>
    </g>
    <g transform="translate(4,30)" s:x="4" s:y="10" s:pid="out0">
      <text x="5" y="-4">2</text>
    </g>
    <g transform="translate(4,50)" s:x="4" s:y="10" s:pid="out0">
      <text x="5" y="-4">0</text>
    </g>
    <g transform="translate(4,70)" s:x="4" s:y="10" s:pid="out0">
      <text x="5" y="-4">3</text>
    </g>
  </g>
  <line x1="146" x2="183" y1="22.5" y2="22.5" class="net_5"/>
  <line x1="183" x2="183" y1="22.5" y2="301.5" class="net_5"/>
  <circle cx="183" cy="301.5" r="2" style="fill:#000" class="net_5"/>
  <line x1="183" x2="203" y1="301.5" y2="301.5" class="net_5"/>
  <line x1="146" x2="183" y1="22.5" y2="22.5" class="net_5"/>
  <line x1="183" x2="183" y1="22.5" y2="127" class="net_5"/>
  <circle cx="183" cy="127" r="2" style="fill:#000" class="net_5"/>
  <line x1="183" x2="286" y1="127" y2="127" class="net_5"/>
  <line x1="146" x2="183" y1="22.5" y2="22.5" class="net_5"/>
  <line x1="183" x2="183" y1="22.5" y2="208" class="net_5"/>
  <circle cx="183" cy="208" r="2" style="fill:#000" class="net_5"/>
  <line x1="183" x2="283" y1="208" y2="208" class="net_5"/>
  <line x1="146" x2="183" y1="22.5" y2="22.5" class="net_5"/>
  <line x1="183" x2="183" y1="22.5" y2="575" class="net_5"/>
  <line x1="183" x2="286" y1="575" y2="575" class="net_5"/>
  <line x1="228" x2="243" y1="301.5" y2="301.5" class="net_15"/>
  <line x1="243" x2="243" y1="301.5" y2="27.5" class="net_15"/>
  <circle cx="243" cy="301.5" r="2" style="fill:#000" class="net_15"/>
  <line x1="243" x2="286" y1="27.5" y2="27.5" class="net_15"/>
  <line x1="228" x2="243" y1="301.5" y2="301.5" class="net_15"/>
  <line x1="243" x2="243" y1="301.5" y2="158" class="net_15"/>
  <circle cx="243" cy="158" r="2" style="fill:#000" class="net_15"/>
  <line x1="243" x2="286" y1="158" y2="158" class="net_15"/>
  <line x1="228" x2="243" y1="301.5" y2="301.5" class="net_15"/>
  <line x1="243" x2="243" y1="301.5" y2="400" class="net_15"/>
  <circle cx="243" cy="400" r="2" style="fill:#000" class="net_15"/>
  <line x1="243" x2="283" y1="400" y2="400" class="net_15"/>
  <line x1="228" x2="243" y1="301.5" y2="301.5" class="net_15"/>
  <line x1="243" x2="243" y1="301.5" y2="525" class="net_15"/>
  <circle cx="243" cy="525" r="2" style="fill:#000" class="net_15"/>
  <line x1="243" x2="283" y1="525" y2="525" class="net_15"/>
  <line x1="228" x2="243" y1="301.5" y2="301.5" class="net_15"/>
  <line x1="243" x2="243" y1="301.5" y2="621" class="net_15"/>
  <line x1="243" x2="392" y1="621" y2="621" class="net_15"/>
  <line x1="146" x2="286" y1="42.5" y2="42.5" class="net_6"/>
  <line x1="146" x2="173" y1="42.5" y2="42.5" class="net_6"/>
  <line x1="173" x2="173" y1="42.5" y2="331.5" class="net_6"/>
  <circle cx="173" cy="42.5" r="2" style="fill:#000" class="net_6"/>
  <circle cx="173" cy="331.5" r="2" style="fill:#000" class="net_6"/>
  <line x1="173" x2="203" y1="331.5" y2="331.5" class="net_6"/>
  <line x1="146" x2="173" y1="42.5" y2="42.5" class="net_6"/>
  <line x1="173" x2="173" y1="42.5" y2="470" class="net_6"/>
  <line x1="173" x2="283" y1="470" y2="470" class="net_6"/>
  <line x1="146" x2="163" y1="62.5" y2="62.5" class="net_4"/>
  <line x1="163" x2="163" y1="62.5" y2="173" class="net_4"/>
  <circle cx="163" cy="173" r="2" style="fill:#000" class="net_4"/>
  <line x1="163" x2="286" y1="173" y2="173" class="net_4"/>
  <line x1="146" x2="163" y1="62.5" y2="62.5" class="net_4"/>
  <line x1="163" x2="163" y1="62.5" y2="271.5" class="net_4"/>
  <circle cx="163" cy="271.5" r="2" style="fill:#000" class="net_4"/>
  <line x1="163" x2="203" y1="271.5" y2="271.5" class="net_4"/>
  <line x1="146" x2="163" y1="62.5" y2="62.5" class="net_4"/>
  <line x1="163" x2="163" y1="62.5" y2="540" class="net_4"/>
  <line x1="163" x2="283" y1="540" y2="540" class="net_4"/>
  <line x1="319" x2="488" y1="35" y2="35" class="net_16"/>
  <line x1="319" x2="379" y1="35" y2="35" class="net_16"/>
  <line x1="379" x2="379" y1="35" y2="120" class="net_16"/>
  <circle cx="379" cy="35" r="2" style="fill:#000" class="net_16"/>
  <line x1="379" x2="392" y1="120" y2="120" class="net_16"/>
  <line x1="319" x2="349" y1="165.5" y2="165.5" class="net_17"/>
  <line x1="349" x2="349" y1="165.5" y2="50" class="net_17"/>
  <circle cx="349" cy="165.5" r="2" style="fill:#000" class="net_17"/>
  <line x1="349" x2="488" y1="50" y2="50" class="net_17"/>
  <line x1="319" x2="349" y1="165.5" y2="165.5" class="net_17"/>
  <line x1="349" x2="349" y1="165.5" y2="552.5" class="net_17"/>
  <line x1="349" x2="392" y1="552.5" y2="552.5" class="net_17"/>
  <line x1="228" x2="253" y1="331.5" y2="331.5" class="net_19"/>
  <line x1="253" x2="253" y1="331.5" y2="112" class="net_19"/>
  <circle cx="253" cy="331.5" r="2" style="fill:#000" class="net_19"/>
  <line x1="253" x2="286" y1="112" y2="112" class="net_19"/>
  <line x1="228" x2="253" y1="331.5" y2="331.5" class="net_19"/>
  <line x1="253" x2="253" y1="331.5" y2="385" class="net_19"/>
  <circle cx="253" cy="385" r="2" style="fill:#000" class="net_19"/>
  <line x1="253" x2="283" y1="385" y2="385" class="net_19"/>
  <line x1="228" x2="253" y1="331.5" y2="331.5" class="net_19"/>
  <line x1="253" x2="253" y1="331.5" y2="490" class="net_19"/>
  <circle cx="253" cy="490" r="2" style="fill:#000" class="net_19"/>
  <line x1="253" x2="286" y1="490" y2="490" class="net_19"/>
  <line x1="228" x2="389" y1="331.5" y2="331.5" class="net_19"/>
  <line x1="228" x2="253" y1="331.5" y2="331.5" class="net_19"/>
  <line x1="253" x2="253" y1="331.5" y2="590" class="net_19"/>
  <line x1="253" x2="445" y1="590" y2="590" class="net_19"/>
  <line x1="445" x2="445" y1="590" y2="575" class="net_19"/>
  <line x1="445" x2="488" y1="575" y2="575" class="net_19"/>
  <line x1="319" x2="369" y1="119.5" y2="119.5" class="net_20"/>
  <line x1="369" x2="369" y1="119.5" y2="85" class="net_20"/>
  <circle cx="369" cy="119.5" r="2" style="fill:#000" class="net_20"/>
  <line x1="369" x2="488" y1="85" y2="85" class="net_20"/>
  <line x1="319" x2="369" y1="119.5" y2="119.5" class="net_20"/>
  <line x1="369" x2="369" y1="119.5" y2="163" class="net_20"/>
  <line x1="369" x2="392" y1="163" y2="163" class="net_20"/>
  <line x1="146" x2="193" y1="82.5" y2="82.5" class="net_7"/>
  <line x1="193" x2="193" y1="82.5" y2="96" class="net_7"/>
  <line x1="193" x2="435" y1="96" y2="96" class="net_7"/>
  <line x1="435" x2="435" y1="96" y2="100" class="net_7"/>
  <circle cx="193" cy="96" r="2" style="fill:#000" class="net_7"/>
  <line x1="435" x2="488" y1="100" y2="100" class="net_7"/>
  <line x1="146" x2="193" y1="82.5" y2="82.5" class="net_7"/>
  <line x1="193" x2="193" y1="82.5" y2="250.5" class="net_7"/>
  <circle cx="193" cy="250.5" r="2" style="fill:#000" class="net_7"/>
  <line x1="193" x2="389" y1="250.5" y2="250.5" class="net_7"/>
  <line x1="146" x2="193" y1="82.5" y2="82.5" class="net_7"/>
  <line x1="193" x2="193" y1="82.5" y2="435" class="net_7"/>
  <circle cx="193" cy="435" r="2" style="fill:#000" class="net_7"/>
  <line x1="193" x2="286" y1="435" y2="435" class="net_7"/>
  <line x1="146" x2="193" y1="82.5" y2="82.5" class="net_7"/>
  <line x1="193" x2="193" y1="82.5" y2="361.5" class="net_7"/>
  <circle cx="193" cy="361.5" r="2" style="fill:#000" class="net_7"/>
  <line x1="193" x2="203" y1="361.5" y2="361.5" class="net_7"/>
  <line x1="146" x2="193" y1="82.5" y2="82.5" class="net_7"/>
  <line x1="193" x2="193" y1="82.5" y2="505" class="net_7"/>
  <line x1="193" x2="286" y1="505" y2="505" class="net_7"/>
  <line x1="521" x2="571" y1="42.5" y2="42.5" class="net_18"/>
  <line x1="521" x2="531" y1="92.5" y2="92.5" class="net_21"/>
  <line x1="531" x2="531" y1="92.5" y2="57.5" class="net_21"/>
  <circle cx="531" cy="92.5" r="2" style="fill:#000" class="net_21"/>
  <line x1="531" x2="571" y1="57.5" y2="57.5" class="net_21"/>
  <line x1="521" x2="571" y1="92.5" y2="92.5" class="net_21"/>
  <line x1="417" x2="485" y1="120" y2="120" class="net_22"/>
  <line x1="228" x2="273" y1="271.5" y2="271.5" class="net_23"/>
  <line x1="273" x2="273" y1="271.5" y2="142" class="net_23"/>
  <line x1="273" x2="435" y1="142" y2="142" class="net_23"/>
  <line x1="435" x2="435" y1="142" y2="135" class="net_23"/>
  <circle cx="273" cy="271.5" r="2" style="fill:#000" class="net_23"/>
  <line x1="435" x2="485" y1="135" y2="135" class="net_23"/>
  <line x1="228" x2="273" y1="271.5" y2="271.5" class="net_23"/>
  <line x1="273" x2="273" y1="271.5" y2="142" class="net_23"/>
  <line x1="273" x2="359" y1="142" y2="142" class="net_23"/>
  <line x1="359" x2="359" y1="142" y2="183" class="net_23"/>
  <line x1="359" x2="435" y1="183" y2="183" class="net_23"/>
  <line x1="435" x2="435" y1="183" y2="178" class="net_23"/>
  <circle cx="359" cy="142" r="2" style="fill:#000" class="net_23"/>
  <line x1="435" x2="485" y1="178" y2="178" class="net_23"/>
  <line x1="228" x2="273" y1="271.5" y2="271.5" class="net_23"/>
  <line x1="273" x2="273" y1="271.5" y2="420" class="net_23"/>
  <circle cx="273" cy="420" r="2" style="fill:#000" class="net_23"/>
  <line x1="273" x2="286" y1="420" y2="420" class="net_23"/>
  <line x1="228" x2="273" y1="271.5" y2="271.5" class="net_23"/>
  <line x1="273" x2="273" y1="271.5" y2="193" class="net_23"/>
  <circle cx="273" cy="193" r="2" style="fill:#000" class="net_23"/>
  <line x1="273" x2="283" y1="193" y2="193" class="net_23"/>
  <line x1="228" x2="273" y1="271.5" y2="271.5" class="net_23"/>
  <line x1="273" x2="273" y1="271.5" y2="560" class="net_23"/>
  <line x1="273" x2="286" y1="560" y2="560" class="net_23"/>
  <line x1="521" x2="541" y1="127.5" y2="127.5" class="net_24"/>
  <line x1="541" x2="541" y1="127.5" y2="77.5" class="net_24"/>
  <line x1="541" x2="571" y1="77.5" y2="77.5" class="net_24"/>
  <line x1="417" x2="485" y1="163" y2="163" class="net_25"/>
  <line x1="319" x2="369" y1="392.5" y2="392.5" class="net_27"/>
  <line x1="369" x2="369" y1="392.5" y2="235.5" class="net_27"/>
  <circle cx="369" cy="392.5" r="2" style="fill:#000" class="net_27"/>
  <line x1="369" x2="389" y1="235.5" y2="235.5" class="net_27"/>
  <line x1="319" x2="392" y1="392.5" y2="392.5" class="net_27"/>
  <line x1="319" x2="369" y1="392.5" y2="392.5" class="net_27"/>
  <line x1="369" x2="369" y1="392.5" y2="527.5" class="net_27"/>
  <line x1="369" x2="445" y1="527.5" y2="527.5" class="net_27"/>
  <line x1="445" x2="445" y1="527.5" y2="520" class="net_27"/>
  <line x1="445" x2="485" y1="520" y2="520" class="net_27"/>
  <line x1="521" x2="571" y1="170.5" y2="170.5" class="net_26"/>
  <line x1="425" x2="531" y1="243" y2="243" class="net_28"/>
  <line x1="531" x2="531" y1="243" y2="185.5" class="net_28"/>
  <line x1="531" x2="571" y1="185.5" y2="185.5" class="net_28"/>
  <line x1="425" x2="465" y1="243" y2="243" class="net_28"/>
  <line x1="465" x2="465" y1="243" y2="477.5" class="net_28"/>
  <circle cx="465" cy="243" r="2" style="fill:#000" class="net_28"/>
  <line x1="465" x2="488" y1="477.5" y2="477.5" class="net_28"/>
  <line x1="319" x2="359" y1="427.5" y2="427.5" class="net_29"/>
  <line x1="359" x2="359" y1="427.5" y2="377.5" class="net_29"/>
  <line x1="359" x2="392" y1="377.5" y2="377.5" class="net_29"/>
  <line x1="228" x2="263" y1="361.5" y2="361.5" class="net_32"/>
  <line x1="263" x2="263" y1="361.5" y2="455" class="net_32"/>
  <circle cx="263" cy="361.5" r="2" style="fill:#000" class="net_32"/>
  <line x1="263" x2="283" y1="455" y2="455" class="net_32"/>
  <line x1="228" x2="329" y1="361.5" y2="361.5" class="net_32"/>
  <line x1="329" x2="329" y1="361.5" y2="346.5" class="net_32"/>
  <line x1="329" x2="389" y1="346.5" y2="346.5" class="net_32"/>
  <line x1="319" x2="392" y1="200.5" y2="200.5" class="net_31"/>
  <line x1="319" x2="379" y1="200.5" y2="200.5" class="net_31"/>
  <line x1="379" x2="379" y1="200.5" y2="361.5" class="net_31"/>
  <line x1="379" x2="445" y1="361.5" y2="361.5" class="net_31"/>
  <line x1="445" x2="445" y1="361.5" y2="450" class="net_31"/>
  <circle cx="379" cy="200.5" r="2" style="fill:#000" class="net_31"/>
  <line x1="445" x2="488" y1="450" y2="450" class="net_31"/>
  <line x1="319" x2="339" y1="462.5" y2="462.5" class="net_33"/>
  <line x1="339" x2="339" y1="462.5" y2="215.5" class="net_33"/>
  <circle cx="339" cy="462.5" r="2" style="fill:#000" class="net_33"/>
  <line x1="339" x2="392" y1="215.5" y2="215.5" class="net_33"/>
  <line x1="319" x2="339" y1="462.5" y2="462.5" class="net_33"/>
  <line x1="339" x2="339" y1="462.5" y2="606" class="net_33"/>
  <line x1="339" x2="392" y1="606" y2="606" class="net_33"/>
  <line x1="425" x2="488" y1="385" y2="385" class="net_30"/>
  <line x1="425" x2="435" y1="385" y2="385" class="net_30"/>
  <line x1="435" x2="435" y1="385" y2="598.5" class="net_30"/>
  <circle cx="435" cy="385" r="2" style="fill:#000" class="net_30"/>
  <line x1="435" x2="488" y1="598.5" y2="598.5" class="net_30"/>
  <line x1="425" x2="475" y1="208" y2="208" class="net_34"/>
  <line x1="475" x2="475" y1="208" y2="400" class="net_34"/>
  <line x1="475" x2="488" y1="400" y2="400" class="net_34"/>
  <line x1="319" x2="389" y1="497.5" y2="497.5" class="net_36"/>
  <line x1="319" x2="359" y1="532.5" y2="532.5" class="net_37"/>
  <line x1="359" x2="359" y1="532.5" y2="512.5" class="net_37"/>
  <line x1="359" x2="389" y1="512.5" y2="512.5" class="net_37"/>
  <line x1="425" x2="485" y1="505" y2="505" class="net_38"/>
  <line x1="521" x2="571" y1="392.5" y2="392.5" class="net_35"/>
  <line x1="521" x2="531" y1="512.5" y2="512.5" class="net_39"/>
  <line x1="531" x2="531" y1="512.5" y2="407.5" class="net_39"/>
  <circle cx="531" cy="512.5" r="2" style="fill:#000" class="net_39"/>
  <line x1="531" x2="571" y1="407.5" y2="407.5" class="net_39"/>
  <line x1="521" x2="571" y1="512.5" y2="512.5" class="net_39"/>
  <line x1="425" x2="455" y1="339" y2="339" class="net_41"/>
  <line x1="455" x2="455" y1="339" y2="435" class="net_41"/>
  <line x1="455" x2="488" y1="435" y2="435" class="net_41"/>
  <line x1="513" x2="541" y1="477.5" y2="477.5" class="net_40"/>
  <line x1="541" x2="541" y1="477.5" y2="427.5" class="net_40"/>
  <circle cx="541" cy="477.5" r="2" style="fill:#000" class="net_40"/>
  <line x1="541" x2="574" y1="427.5" y2="427.5" class="net_40"/>
  <line x1="513" x2="574" y1="477.5" y2="477.5" class="net_40"/>
  <line x1="521" x2="574" y1="442.5" y2="442.5" class="net_42"/>
  <line x1="319" x2="392" y1="567.5" y2="567.5" class="net_43"/>
  <line x1="425" x2="488" y1="560" y2="560" class="net_44"/>
  <line x1="521" x2="551" y1="567.5" y2="567.5" class="net_45"/>
  <line x1="551" x2="551" y1="567.5" y2="462.5" class="net_45"/>
  <line x1="551" x2="574" y1="462.5" y2="462.5" class="net_45"/>
  <line x1="425" x2="488" y1="613.5" y2="613.5" class="net_46"/>
  <line x1="521" x2="561" y1="606" y2="606" class="net_47"/>
  <line x1="561" x2="561" y1="606" y2="497.5" class="net_47"/>
  <line x1="561" x2="571" y1="497.5" y2="497.5" class="net_47"/>
  <line x1="643" x2="660" y1="350" y2="350" class="net_8,9,10,11,12,13,14"/>
  <line x1="607" x2="637.5" y1="50" y2="50" class="net_8"/>
  <line x1="637.5" x2="637.5" y1="50" y2="339.5" class="net_8"/>
  <line x1="607" x2="627" y1="85" y2="85" class="net_9"/>
  <line x1="627" x2="627" y1="85" y2="360" class="net_9"/>
  <line x1="627" x2="637" y1="360" y2="360" class="net_9"/>
  <line x1="607" x2="617" y1="178" y2="178" class="net_10"/>
  <line x1="617" x2="617" y1="178" y2="380" class="net_10"/>
  <line x1="617" x2="637" y1="380" y2="380" class="net_10"/>
  <line x1="607" x2="637" y1="400" y2="400" class="net_11"/>
  <line x1="607" x2="617" y1="435" y2="435" class="net_12"/>
  <line x1="617" x2="617" y1="435" y2="420" class="net_12"/>
  <line x1="617" x2="637" y1="420" y2="420" class="net_12"/>
  <line x1="607" x2="617" y1="470" y2="470" class="net_13"/>
  <line x1="617" x2="617" y1="470" y2="440" class="net_13"/>
  <line x1="617" x2="637" y1="440" y2="440" class="net_13"/>
  <line x1="607" x2="637.5" y1="505" y2="505" class="net_14"/>
  <line x1="637.5" x2="637.5" y1="505" y2="460.5" class="net_14"/>
  <line x1="40" x2="141" y1="32.5" y2="32.5" class="net_4,5,6,7"/>
</svg>
