<svg xmlns="http://www.w3.org/2000/svg" xmlns:xlink="http://www.w3.org/1999/xlink" xmlns:s="https://github.com/nturley/netlistsvg" width="694" height="582.5">
  <style>svg {
    stroke:#000;
    fill:none;
  }
  text {
    fill:#000;
    stroke:none;
    font-size:10px;
    font-weight: bold;
    font-family: "Courier New", monospace;
  }
  .nodelabel {
    text-anchor: middle;
  }
  .inputPortLabel {
    text-anchor: end;
  }
  .splitjoinBody {
    fill:#000;
  }
  .noninv {
    fill:#EEF;
  }</style>
  <g s:type="INV" transform="translate(203,294)" s:width="30" s:height="20" id="cell_$abc$399$auto$blifparse.cc:371:parse_blif$400">
    <s:alias val="INV"/>
    <s:alias val="INV_X1"/>
    <s:alias val="INV_X2"/>
    <s:alias val="INV_X4"/>
    <s:alias val="INV_X8"/>
    <s:alias val="INV_X16"/>
    <s:alias val="INV_X32"/>
    <path d="M0,0 L0,20 L20,10 Z"/>
    <circle cx="23" cy="10" r="3"/>
    <g s:x="0" s:y="10" s:pid="A"/>
    <g s:x="25" s:y="10" s:pid="ZN"/>
  </g>
  <g s:type="NAND2" transform="translate(361,101.5)" s:width="30" s:height="25" id="cell_$abc$399$auto$blifparse.cc:371:parse_blif$401">
    <s:alias val="NAND2"/>
    <s:alias val="NAND2_X1"/>
    <s:alias val="NAND2_X2"/>
    <s:alias val="NAND2_X4"/>
    <path d="M0,0 L0,25 L15,25 A15 12.5 0 0 0 15,0 Z"/>
    <circle cx="34" cy="12.5" r="3"/>
    <g s:x="0" s:y="5" s:pid="A1"/>
    <g s:x="0" s:y="20" s:pid="A2"/>
    <g s:x="36" s:y="12.5" s:pid="ZN"/>
  </g>
  <g s:type="INV" transform="translate(276,222)" s:width="30" s:height="20" id="cell_$abc$399$auto$blifparse.cc:371:parse_blif$402">
    <s:alias val="INV"/>
    <s:alias val="INV_X1"/>
    <s:alias val="INV_X2"/>
    <s:alias val="INV_X4"/>
    <s:alias val="INV_X8"/>
    <s:alias val="INV_X16"/>
    <s:alias val="INV_X32"/>
    <path d="M0,0 L0,20 L20,10 Z"/>
    <circle cx="23" cy="10" r="3"/>
    <g s:x="0" s:y="10" s:pid="A"/>
    <g s:x="25" s:y="10" s:pid="ZN"/>
  </g>
  <g s:type="AND2" transform="translate(449,23)" s:width="30" s:height="25" id="cell_$abc$399$auto$blifparse.cc:371:parse_blif$403">
    <s:alias val="AND2"/>
    <s:alias val="AND2_X1"/>
    <s:alias val="AND2_X2"/>
    <s:alias val="AND2_X4"/>
    <path d="M0,0 L0,25 L15,25 A15 12.5 0 0 0 15,0 Z" class="noninv"/>
    <g s:x="0" s:y="5" s:pid="A1"/>
    <g s:x="0" s:y="20" s:pid="A2"/>
    <g s:x="30" s:y="12.5" s:pid="ZN"/>
  </g>
  <g s:type="INV" transform="translate(203,324)" s:width="30" s:height="20" id="cell_$abc$399$auto$blifparse.cc:371:parse_blif$404">
    <s:alias val="INV"/>
    <s:alias val="INV_X1"/>
    <s:alias val="INV_X2"/>
    <s:alias val="INV_X4"/>
    <s:alias val="INV_X8"/>
    <s:alias val="INV_X16"/>
    <s:alias val="INV_X32"/>
    <path d="M0,0 L0,20 L20,10 Z"/>
    <circle cx="23" cy="10" r="3"/>
    <g s:x="0" s:y="10" s:pid="A"/>
    <g s:x="25" s:y="10" s:pid="ZN"/>
  </g>
  <g s:type="BUF" transform="translate(276,263)" s:width="30" s:height="20" id="cell_$abc$399$auto$blifparse.cc:371:parse_blif$405">
    <s:alias val="BUF"/>
    <s:alias val="BUF_X1"/>
    <s:alias val="BUF_X2"/>
    <s:alias val="BUF_X4"/>
    <s:alias val="BUF_X8"/>
    <s:alias val="BUF_X16"/>
    <s:alias val="BUF_X32"/>
    <path d="M0,0 L0,20 L20,10 Z" class="noninv"/>
    <g s:x="0" s:y="10" s:pid="A"/>
    <g s:x="20" s:y="10" s:pid="Z"/>
  </g>
  <g s:type="NAND2" transform="translate(361,66.5)" s:width="30" s:height="25" id="cell_$abc$399$auto$blifparse.cc:371:parse_blif$406">
    <s:alias val="NAND2"/>
    <s:alias val="NAND2_X1"/>
    <s:alias val="NAND2_X2"/>
    <s:alias val="NAND2_X4"/>
    <path d="M0,0 L0,25 L15,25 A15 12.5 0 0 0 15,0 Z"/>
    <circle cx="34" cy="12.5" r="3"/>
    <g s:x="0" s:y="5" s:pid="A1"/>
    <g s:x="0" s:y="20" s:pid="A2"/>
    <g s:x="36" s:y="12.5" s:pid="ZN"/>
  </g>
  <g s:type="INV" transform="translate(276,192)" s:width="30" s:height="20" id="cell_$abc$399$auto$blifparse.cc:371:parse_blif$407">
    <s:alias val="INV"/>
    <s:alias val="INV_X1"/>
    <s:alias val="INV_X2"/>
    <s:alias val="INV_X4"/>
    <s:alias val="INV_X8"/>
    <s:alias val="INV_X16"/>
    <s:alias val="INV_X32"/>
    <path d="M0,0 L0,20 L20,10 Z"/>
    <circle cx="23" cy="10" r="3"/>
    <g s:x="0" s:y="10" s:pid="A"/>
    <g s:x="25" s:y="10" s:pid="ZN"/>
  </g>
  <g s:type="NAND2" transform="translate(361,197)" s:width="30" s:height="25" id="cell_$abc$399$auto$blifparse.cc:371:parse_blif$408">
    <s:alias val="NAND2"/>
    <s:alias val="NAND2_X1"/>
    <s:alias val="NAND2_X2"/>
    <s:alias val="NAND2_X4"/>
    <path d="M0,0 L0,25 L15,25 A15 12.5 0 0 0 15,0 Z"/>
    <circle cx="34" cy="12.5" r="3"/>
    <g s:x="0" s:y="5" s:pid="A1"/>
    <g s:x="0" s:y="20" s:pid="A2"/>
    <g s:x="36" s:y="12.5" s:pid="ZN"/>
  </g>
  <g s:type="NAND3" transform="translate(563,31.5)" s:width="30" s:height="25" id="cell_$abc$399$auto$blifparse.cc:371:parse_blif$409">
    <s:alias val="NAND3"/>
    <s:alias val="NAND3_X1"/>
    <s:alias val="NAND3_X2"/>
    <s:alias val="NAND3_X4"/>
    <path d="M0,0 L0,25 L15,25 A15 12.5 0 0 0 15,0 Z"/>
    <circle cx="34" cy="12.5" r="3"/>
    <g s:x="0" s:y="4" s:pid="A1"/>
    <g s:x="0" s:y="12.5" s:pid="A2"/>
    <g s:x="0" s:y="21" s:pid="A3"/>
    <g s:x="36" s:y="12.5" s:pid="ZN"/>
  </g>
  <g s:type="NAND2" transform="translate(447,74)" s:width="30" s:height="25" id="cell_$abc$399$auto$blifparse.cc:371:parse_blif$410">
    <s:alias val="NAND2"/>
    <s:alias val="NAND2_X1"/>
    <s:alias val="NAND2_X2"/>
    <s:alias val="NAND2_X4"/>
    <path d="M0,0 L0,25 L15,25 A15 12.5 0 0 0 15,0 Z"/>
    <circle cx="34" cy="12.5" r="3"/>
    <g s:x="0" s:y="5" s:pid="A1"/>
    <g s:x="0" s:y="20" s:pid="A2"/>
    <g s:x="36" s:y="12.5" s:pid="ZN"/>
  </g>
  <g s:type="NAND2" transform="translate(563,66.5)" s:width="30" s:height="25" id="cell_$abc$399$auto$blifparse.cc:371:parse_blif$411">
    <s:alias val="NAND2"/>
    <s:alias val="NAND2_X1"/>
    <s:alias val="NAND2_X2"/>
    <s:alias val="NAND2_X4"/>
    <path d="M0,0 L0,25 L15,25 A15 12.5 0 0 0 15,0 Z"/>
    <circle cx="34" cy="12.5" r="3"/>
    <g s:x="0" s:y="5" s:pid="A1"/>
    <g s:x="0" s:y="20" s:pid="A2"/>
    <g s:x="36" s:y="12.5" s:pid="ZN"/>
  </g>
  <g s:type="NAND2" transform="translate(361,284)" s:width="30" s:height="25" id="cell_$abc$399$auto$blifparse.cc:371:parse_blif$412">
    <s:alias val="NAND2"/>
    <s:alias val="NAND2_X1"/>
    <s:alias val="NAND2_X2"/>
    <s:alias val="NAND2_X4"/>
    <path d="M0,0 L0,25 L15,25 A15 12.5 0 0 0 15,0 Z"/>
    <circle cx="34" cy="12.5" r="3"/>
    <g s:x="0" s:y="5" s:pid="A1"/>
    <g s:x="0" s:y="20" s:pid="A2"/>
    <g s:x="36" s:y="12.5" s:pid="ZN"/>
  </g>
  <g s:type="AND2" transform="translate(449,291.5)" s:width="30" s:height="25" id="cell_$abc$399$auto$blifparse.cc:371:parse_blif$413">
    <s:alias val="AND2"/>
    <s:alias val="AND2_X1"/>
    <s:alias val="AND2_X2"/>
    <s:alias val="AND2_X4"/>
    <path d="M0,0 L0,25 L15,25 A15 12.5 0 0 0 15,0 Z" class="noninv"/>
    <g s:x="0" s:y="5" s:pid="A1"/>
    <g s:x="0" s:y="20" s:pid="A2"/>
    <g s:x="30" s:y="12.5" s:pid="ZN"/>
  </g>
  <g s:type="AND2" transform="translate(449,127.5)" s:width="30" s:height="25" id="cell_$abc$399$auto$blifparse.cc:371:parse_blif$414">
    <s:alias val="AND2"/>
    <s:alias val="AND2_X1"/>
    <s:alias val="AND2_X2"/>
    <s:alias val="AND2_X4"/>
    <path d="M0,0 L0,25 L15,25 A15 12.5 0 0 0 15,0 Z" class="noninv"/>
    <g s:x="0" s:y="5" s:pid="A1"/>
    <g s:x="0" s:y="20" s:pid="A2"/>
    <g s:x="30" s:y="12.5" s:pid="ZN"/>
  </g>
  <g s:type="OR2" transform="translate(565,120)" s:width="30" s:height="25" id="cell_$abc$399$auto$blifparse.cc:371:parse_blif$415">
    <s:alias val="OR2"/>
    <s:alias val="OR2_X1"/>
    <s:alias val="OR2_X2"/>
    <s:alias val="OR2_X4"/>
    <path d="M0,25 L0,25 L15,25 A15 12.5 0 0 0 15,0 L0,0" class="noninv"/>
    <path d="M0,0 A30 25 0 0 1 0,25"/>
    <g s:x="3" s:y="5" s:pid="A1"/>
    <g s:x="3" s:y="20" s:pid="A2"/>
    <g s:x="30" s:y="12.5" s:pid="ZN"/>
  </g>
  <g s:type="NOR2" transform="translate(273,334)" s:width="33" s:height="25" id="cell_$abc$399$auto$blifparse.cc:371:parse_blif$416">
    <s:alias val="NOR2"/>
    <s:alias val="NOR2_X1"/>
    <s:alias val="NOR2_X2"/>
    <s:alias val="NOR2_X4"/>
    <path d="M0,25 L0,25 L15,25 A15 12.5 0 0 0 15,0 L0,0"/>
    <path d="M0,0 A30 25 0 0 1 0,25"/>
    <circle cx="34" cy="12.5" r="3"/>
    <g s:x="3" s:y="5" s:pid="A1"/>
    <g s:x="3" s:y="20" s:pid="A2"/>
    <g s:x="36" s:y="12.5" s:pid="ZN"/>
  </g>
  <g s:type="NAND2" transform="translate(273,369)" s:width="30" s:height="25" id="cell_$abc$399$auto$blifparse.cc:371:parse_blif$417">
    <s:alias val="NAND2"/>
    <s:alias val="NAND2_X1"/>
    <s:alias val="NAND2_X2"/>
    <s:alias val="NAND2_X4"/>
    <path d="M0,0 L0,25 L15,25 A15 12.5 0 0 0 15,0 Z"/>
    <circle cx="34" cy="12.5" r="3"/>
    <g s:x="0" s:y="5" s:pid="A1"/>
    <g s:x="0" s:y="20" s:pid="A2"/>
    <g s:x="36" s:y="12.5" s:pid="ZN"/>
  </g>
  <g s:type="NAND2" transform="translate(361,361.5)" s:width="30" s:height="25" id="cell_$abc$399$auto$blifparse.cc:371:parse_blif$418">
    <s:alias val="NAND2"/>
    <s:alias val="NAND2_X1"/>
    <s:alias val="NAND2_X2"/>
    <s:alias val="NAND2_X4"/>
    <path d="M0,0 L0,25 L15,25 A15 12.5 0 0 0 15,0 Z"/>
    <circle cx="34" cy="12.5" r="3"/>
    <g s:x="0" s:y="5" s:pid="A1"/>
    <g s:x="0" s:y="20" s:pid="A2"/>
    <g s:x="36" s:y="12.5" s:pid="ZN"/>
  </g>
  <g s:type="NAND2" transform="translate(447,369)" s:width="30" s:height="25" id="cell_$abc$399$auto$blifparse.cc:371:parse_blif$419">
    <s:alias val="NAND2"/>
    <s:alias val="NAND2_X1"/>
    <s:alias val="NAND2_X2"/>
    <s:alias val="NAND2_X4"/>
    <path d="M0,0 L0,25 L15,25 A15 12.5 0 0 0 15,0 Z"/>
    <circle cx="34" cy="12.5" r="3"/>
    <g s:x="0" s:y="5" s:pid="A1"/>
    <g s:x="0" s:y="20" s:pid="A2"/>
    <g s:x="36" s:y="12.5" s:pid="ZN"/>
  </g>
  <g s:type="NAND2" transform="translate(361,438.5)" s:width="30" s:height="25" id="cell_$abc$399$auto$blifparse.cc:371:parse_blif$420">
    <s:alias val="NAND2"/>
    <s:alias val="NAND2_X1"/>
    <s:alias val="NAND2_X2"/>
    <s:alias val="NAND2_X4"/>
    <path d="M0,0 L0,25 L15,25 A15 12.5 0 0 0 15,0 Z"/>
    <circle cx="34" cy="12.5" r="3"/>
    <g s:x="0" s:y="5" s:pid="A1"/>
    <g s:x="0" s:y="20" s:pid="A2"/>
    <g s:x="36" s:y="12.5" s:pid="ZN"/>
  </g>
  <g s:type="NAND3" transform="translate(447,461)" s:width="30" s:height="25" id="cell_$abc$399$auto$blifparse.cc:371:parse_blif$421">
    <s:alias val="NAND3"/>
    <s:alias val="NAND3_X1"/>
    <s:alias val="NAND3_X2"/>
    <s:alias val="NAND3_X4"/>
    <path d="M0,0 L0,25 L15,25 A15 12.5 0 0 0 15,0 Z"/>
    <circle cx="34" cy="12.5" r="3"/>
    <g s:x="0" s:y="4" s:pid="A1"/>
    <g s:x="0" s:y="12.5" s:pid="A2"/>
    <g s:x="0" s:y="21" s:pid="A3"/>
    <g s:x="36" s:y="12.5" s:pid="ZN"/>
  </g>
  <g s:type="NAND3" transform="translate(447,173.5)" s:width="30" s:height="25" id="cell_$abc$399$auto$blifparse.cc:371:parse_blif$422">
    <s:alias val="NAND3"/>
    <s:alias val="NAND3_X1"/>
    <s:alias val="NAND3_X2"/>
    <s:alias val="NAND3_X4"/>
    <path d="M0,0 L0,25 L15,25 A15 12.5 0 0 0 15,0 Z"/>
    <circle cx="34" cy="12.5" r="3"/>
    <g s:x="0" s:y="4" s:pid="A1"/>
    <g s:x="0" s:y="12.5" s:pid="A2"/>
    <g s:x="0" s:y="21" s:pid="A3"/>
    <g s:x="36" s:y="12.5" s:pid="ZN"/>
  </g>
  <g s:type="NAND3" transform="translate(563,165)" s:width="30" s:height="25" id="cell_$abc$399$auto$blifparse.cc:371:parse_blif$423">
    <s:alias val="NAND3"/>
    <s:alias val="NAND3_X1"/>
    <s:alias val="NAND3_X2"/>
    <s:alias val="NAND3_X4"/>
    <path d="M0,0 L0,25 L15,25 A15 12.5 0 0 0 15,0 Z"/>
    <circle cx="34" cy="12.5" r="3"/>
    <g s:x="0" s:y="4" s:pid="A1"/>
    <g s:x="0" s:y="12.5" s:pid="A2"/>
    <g s:x="0" s:y="21" s:pid="A3"/>
    <g s:x="36" s:y="12.5" s:pid="ZN"/>
  </g>
  <g s:type="NOR3" transform="translate(447,404)" s:width="33" s:height="25" id="cell_$abc$399$auto$blifparse.cc:371:parse_blif$424">
    <s:alias val="NOR3"/>
    <s:alias val="NOR3_X1"/>
    <s:alias val="NOR3_X2"/>
    <s:alias val="NOR3_X4"/>
    <path d="M0,25 L0,25 L15,25 A15 12.5 0 0 0 15,0 L0,0"/>
    <path d="M0,0 A30 25 0 0 1 0,25"/>
    <circle cx="34" cy="12.5" r="3"/>
    <g s:x="3" s:y="4" s:pid="A1"/>
    <g s:x="4" s:y="12.5" s:pid="A2"/>
    <g s:x="3" s:y="21" s:pid="A3"/>
    <g s:x="36" s:y="12.5" s:pid="ZN"/>
  </g>
  <g s:type="NOR2" transform="translate(563,249)" s:width="33" s:height="25" id="cell_$abc$399$auto$blifparse.cc:371:parse_blif$425">
    <s:alias val="NOR2"/>
    <s:alias val="NOR2_X1"/>
    <s:alias val="NOR2_X2"/>
    <s:alias val="NOR2_X4"/>
    <path d="M0,25 L0,25 L15,25 A15 12.5 0 0 0 15,0 L0,0"/>
    <path d="M0,0 A30 25 0 0 1 0,25"/>
    <circle cx="34" cy="12.5" r="3"/>
    <g s:x="3" s:y="5" s:pid="A1"/>
    <g s:x="3" s:y="20" s:pid="A2"/>
    <g s:x="36" s:y="12.5" s:pid="ZN"/>
  </g>
  <g s:type="XNOR2" transform="translate(359,495.5)" s:width="33" s:height="25" id="cell_$abc$399$auto$blifparse.cc:371:parse_blif$426">
    <s:alias val="XNOR2"/>
    <s:alias val="XNOR2_X1"/>
    <s:alias val="XNOR2_X2"/>
    <s:alias val="XNOR2_X2"/>
    <path d="M3,0 A30 25 0 0 1 3,25 A30 25 0 0 0 33,12.5 A30 25 0 0 0 3,0"/>
    <path d="M0,0 A30 25 0 0 1 0,25"/>
    <circle cx="35" cy="12.5" r="3"/>
    <g s:x="3" s:y="5" s:pid="A"/>
    <g s:x="3" s:y="20" s:pid="B"/>
    <g s:x="38" s:y="12.5" s:pid="ZN"/>
  </g>
  <g s:type="NOR2" transform="translate(447,510.5)" s:width="33" s:height="25" id="cell_$abc$399$auto$blifparse.cc:371:parse_blif$427">
    <s:alias val="NOR2"/>
    <s:alias val="NOR2_X1"/>
    <s:alias val="NOR2_X2"/>
    <s:alias val="NOR2_X4"/>
    <path d="M0,25 L0,25 L15,25 A15 12.5 0 0 0 15,0 L0,0"/>
    <path d="M0,0 A30 25 0 0 1 0,25"/>
    <circle cx="34" cy="12.5" r="3"/>
    <g s:x="3" s:y="5" s:pid="A1"/>
    <g s:x="3" s:y="20" s:pid="A2"/>
    <g s:x="36" s:y="12.5" s:pid="ZN"/>
  </g>
  <g s:type="NOR2" transform="translate(563,284)" s:width="33" s:height="25" id="cell_$abc$399$auto$blifparse.cc:371:parse_blif$428">
    <s:alias val="NOR2"/>
    <s:alias val="NOR2_X1"/>
    <s:alias val="NOR2_X2"/>
    <s:alias val="NOR2_X4"/>
    <path d="M0,25 L0,25 L15,25 A15 12.5 0 0 0 15,0 L0,0"/>
    <path d="M0,0 A30 25 0 0 1 0,25"/>
    <circle cx="34" cy="12.5" r="3"/>
    <g s:x="3" s:y="5" s:pid="A1"/>
    <g s:x="3" s:y="20" s:pid="A2"/>
    <g s:x="36" s:y="12.5" s:pid="ZN"/>
  </g>
  <g s:type="NAND2" transform="translate(447,545.5)" s:width="30" s:height="25" id="cell_$abc$399$auto$blifparse.cc:371:parse_blif$429">
    <s:alias val="NAND2"/>
    <s:alias val="NAND2_X1"/>
    <s:alias val="NAND2_X2"/>
    <s:alias val="NAND2_X4"/>
    <path d="M0,0 L0,25 L15,25 A15 12.5 0 0 0 15,0 Z"/>
    <circle cx="34" cy="12.5" r="3"/>
    <g s:x="0" s:y="5" s:pid="A1"/>
    <g s:x="0" s:y="20" s:pid="A2"/>
    <g s:x="36" s:y="12.5" s:pid="ZN"/>
  </g>
  <g s:type="NAND3" transform="translate(563,461)" s:width="30" s:height="25" id="cell_$abc$399$auto$blifparse.cc:371:parse_blif$430">
    <s:alias val="NAND3"/>
    <s:alias val="NAND3_X1"/>
    <s:alias val="NAND3_X2"/>
    <s:alias val="NAND3_X4"/>
    <path d="M0,0 L0,25 L15,25 A15 12.5 0 0 0 15,0 Z"/>
    <circle cx="34" cy="12.5" r="3"/>
    <g s:x="0" s:y="4" s:pid="A1"/>
    <g s:x="0" s:y="12.5" s:pid="A2"/>
    <g s:x="0" s:y="21" s:pid="A3"/>
    <g s:x="36" s:y="12.5" s:pid="ZN"/>
  </g>
  <g s:type="inputExt" transform="translate(12,440.5)" s:width="30" s:height="20" id="cell_input_binary_number">
    <text x="15" y="-4" class="nodelabel" s:attribute="ref">input_binary_number</text>
    <s:alias val="$_inputExt_"/>
    <path d="M0,0 L0,20 L15,20 L30,10 L15,0 Z"/>
    <g s:x="28" s:y="10" s:pid="Y"/>
  </g>
  <g s:type="outputExt" transform="translate(652,117.5)" s:width="30" s:height="20" id="cell_out">
    <text x="15" y="-4" class="nodelabel" s:attribute="ref">out</text>
    <s:alias val="$_outputExt_"/>
    <path d="M30,0 L30,20 L15,20 L0,10 L15,0 Z"/>
    <g s:x="0" s:y="10" s:pid="A"/>
  </g>
  <g s:type="join" transform="translate(629,107)" s:width="4" s:height="40" id="cell_$join$,8,9,10,11,12,13,14,">
    <rect width="5" height="140" class="splitjoinBody" s:generic="body"/>
    <s:alias val="$_join_"/>
    <g s:x="5" s:y="20" s:pid="out"/>
    <g transform="translate(0,10)" s:x="0" s:y="10" s:pid="in0">
      <text x="-3" y="-4" class="inputPortLabel">0</text>
    </g>
    <g transform="translate(0,30)" s:x="0" s:y="10" s:pid="in0">
      <text x="-3" y="-4" class="inputPortLabel">1</text>
    </g>
    <g transform="translate(0,50)" s:x="0" s:y="10" s:pid="in0">
      <text x="-3" y="-4" class="inputPortLabel">2</text>
    </g>
    <g transform="translate(0,70)" s:x="0" s:y="10" s:pid="in0">
      <text x="-3" y="-4" class="inputPortLabel">3</text>
    </g>
    <g transform="translate(0,90)" s:x="0" s:y="10" s:pid="in0">
      <text x="-3" y="-4" class="inputPortLabel">4</text>
    </g>
    <g transform="translate(0,110)" s:x="0" s:y="10" s:pid="in0">
      <text x="-3" y="-4" class="inputPortLabel">5</text>
    </g>
    <g transform="translate(0,130)" s:x="0" s:y="10" s:pid="in0">
      <text x="-3" y="-4" class="inputPortLabel">6</text>
    </g>
  </g>
  <g s:type="split" transform="translate(141,430)" s:width="5" s:height="40" id="cell_$split$,4,5,6,7,">
    <rect width="5" height="80" class="splitjoinBody" s:generic="body"/>
    <s:alias val="$_split_"/>
    <g s:x="0" s:y="20" s:pid="in"/>
    <g transform="translate(4,10)" s:x="4" s:y="10" s:pid="out0">
      <text x="5" y="-4">1</text>
    </g>
    <g transform="translate(4,30)" s:x="4" s:y="10" s:pid="out0">
      <text x="5" y="-4">2</text>
    </g>
    <g transform="translate(4,50)" s:x="4" s:y="10" s:pid="out0">
      <text x="5" y="-4">3</text>
    </g>
    <g transform="translate(4,70)" s:x="4" s:y="10" s:pid="out0">
      <text x="5" y="-4">0</text>
    </g>
  </g>
  <line x1="146" x2="163" y1="440.5" y2="440.5" class="net_5"/>
  <line x1="163" x2="163" y1="440.5" y2="304" class="net_5"/>
  <circle cx="163" cy="304" r="2" style="fill:#000" class="net_5"/>
  <line x1="163" x2="203" y1="304" y2="304" class="net_5"/>
  <line x1="146" x2="163" y1="440.5" y2="440.5" class="net_5"/>
  <line x1="163" x2="163" y1="440.5" y2="273" class="net_5"/>
  <line x1="163" x2="276" y1="273" y2="273" class="net_5"/>
  <line x1="228" x2="253" y1="304" y2="304" class="net_15"/>
  <line x1="253" x2="253" y1="304" y2="110.5" class="net_15"/>
  <line x1="253" x2="339" y1="110.5" y2="110.5" class="net_15"/>
  <line x1="339" x2="339" y1="110.5" y2="106.5" class="net_15"/>
  <circle cx="253" cy="304" r="2" style="fill:#000" class="net_15"/>
  <line x1="339" x2="361" y1="106.5" y2="106.5" class="net_15"/>
  <line x1="228" x2="361" y1="304" y2="304" class="net_15"/>
  <line x1="228" x2="253" y1="304" y2="304" class="net_15"/>
  <line x1="253" x2="253" y1="304" y2="374" class="net_15"/>
  <circle cx="253" cy="374" r="2" style="fill:#000" class="net_15"/>
  <line x1="253" x2="273" y1="374" y2="374" class="net_15"/>
  <line x1="228" x2="253" y1="304" y2="304" class="net_15"/>
  <line x1="253" x2="253" y1="304" y2="484.5" class="net_15"/>
  <line x1="253" x2="407" y1="484.5" y2="484.5" class="net_15"/>
  <line x1="407" x2="407" y1="484.5" y2="482" class="net_15"/>
  <line x1="407" x2="447" y1="482" y2="482" class="net_15"/>
  <line x1="146" x2="173" y1="460.5" y2="460.5" class="net_6"/>
  <line x1="173" x2="173" y1="460.5" y2="121.5" class="net_6"/>
  <line x1="173" x2="361" y1="121.5" y2="121.5" class="net_6"/>
  <line x1="146" x2="173" y1="460.5" y2="460.5" class="net_6"/>
  <line x1="173" x2="173" y1="460.5" y2="334" class="net_6"/>
  <circle cx="173" cy="334" r="2" style="fill:#000" class="net_6"/>
  <line x1="173" x2="203" y1="334" y2="334" class="net_6"/>
  <line x1="146" x2="173" y1="460.5" y2="460.5" class="net_6"/>
  <line x1="173" x2="173" y1="460.5" y2="416.5" class="net_6"/>
  <circle cx="173" cy="416.5" r="2" style="fill:#000" class="net_6"/>
  <line x1="173" x2="451" y1="416.5" y2="416.5" class="net_6"/>
  <line x1="146" x2="193" y1="480.5" y2="480.5" class="net_7"/>
  <line x1="193" x2="193" y1="480.5" y2="252" class="net_7"/>
  <line x1="193" x2="263" y1="252" y2="252" class="net_7"/>
  <line x1="263" x2="263" y1="252" y2="232" class="net_7"/>
  <circle cx="263" cy="252" r="2" style="fill:#000" class="net_7"/>
  <line x1="263" x2="276" y1="232" y2="232" class="net_7"/>
  <line x1="146" x2="193" y1="480.5" y2="480.5" class="net_7"/>
  <line x1="193" x2="193" y1="480.5" y2="252" class="net_7"/>
  <line x1="193" x2="427" y1="252" y2="252" class="net_7"/>
  <line x1="427" x2="427" y1="252" y2="311.5" class="net_7"/>
  <line x1="427" x2="449" y1="311.5" y2="311.5" class="net_7"/>
  <line x1="146" x2="193" y1="480.5" y2="480.5" class="net_7"/>
  <line x1="193" x2="193" y1="480.5" y2="354" class="net_7"/>
  <circle cx="193" cy="354" r="2" style="fill:#000" class="net_7"/>
  <line x1="193" x2="276" y1="354" y2="354" class="net_7"/>
  <line x1="146" x2="193" y1="480.5" y2="480.5" class="net_7"/>
  <line x1="193" x2="193" y1="480.5" y2="427.5" class="net_7"/>
  <line x1="193" x2="407" y1="427.5" y2="427.5" class="net_7"/>
  <line x1="407" x2="407" y1="427.5" y2="425" class="net_7"/>
  <circle cx="193" cy="427.5" r="2" style="fill:#000" class="net_7"/>
  <line x1="407" x2="450" y1="425" y2="425" class="net_7"/>
  <line x1="397" x2="417" y1="114" y2="114" class="net_16"/>
  <line x1="417" x2="417" y1="114" y2="28" class="net_16"/>
  <circle cx="417" cy="114" r="2" style="fill:#000" class="net_16"/>
  <line x1="417" x2="449" y1="28" y2="28" class="net_16"/>
  <line x1="397" x2="417" y1="114" y2="114" class="net_16"/>
  <line x1="417" x2="417" y1="114" y2="132.5" class="net_16"/>
  <line x1="417" x2="449" y1="132.5" y2="132.5" class="net_16"/>
  <line x1="301" x2="319" y1="232" y2="232" class="net_17"/>
  <line x1="319" x2="319" y1="232" y2="136.5" class="net_17"/>
  <line x1="319" x2="427" y1="136.5" y2="136.5" class="net_17"/>
  <line x1="427" x2="427" y1="136.5" y2="43" class="net_17"/>
  <circle cx="319" cy="232" r="2" style="fill:#000" class="net_17"/>
  <line x1="427" x2="449" y1="43" y2="43" class="net_17"/>
  <line x1="301" x2="319" y1="232" y2="232" class="net_17"/>
  <line x1="319" x2="319" y1="232" y2="443.5" class="net_17"/>
  <line x1="319" x2="361" y1="443.5" y2="443.5" class="net_17"/>
  <line x1="228" x2="243" y1="334" y2="334" class="net_19"/>
  <line x1="243" x2="243" y1="334" y2="71.5" class="net_19"/>
  <circle cx="243" cy="334" r="2" style="fill:#000" class="net_19"/>
  <line x1="243" x2="361" y1="71.5" y2="71.5" class="net_19"/>
  <line x1="228" x2="243" y1="334" y2="334" class="net_19"/>
  <line x1="243" x2="243" y1="334" y2="293" class="net_19"/>
  <line x1="243" x2="349" y1="293" y2="293" class="net_19"/>
  <line x1="349" x2="349" y1="293" y2="289" class="net_19"/>
  <circle cx="243" cy="293" r="2" style="fill:#000" class="net_19"/>
  <line x1="349" x2="361" y1="289" y2="289" class="net_19"/>
  <line x1="228" x2="243" y1="334" y2="334" class="net_19"/>
  <line x1="243" x2="243" y1="334" y2="339" class="net_19"/>
  <circle cx="243" cy="339" r="2" style="fill:#000" class="net_19"/>
  <line x1="243" x2="276" y1="339" y2="339" class="net_19"/>
  <line x1="228" x2="243" y1="334" y2="334" class="net_19"/>
  <line x1="243" x2="243" y1="334" y2="473.5" class="net_19"/>
  <circle cx="243" cy="473.5" r="2" style="fill:#000" class="net_19"/>
  <line x1="243" x2="447" y1="473.5" y2="473.5" class="net_19"/>
  <line x1="228" x2="243" y1="334" y2="334" class="net_19"/>
  <line x1="243" x2="243" y1="334" y2="530.5" class="net_19"/>
  <line x1="243" x2="450" y1="530.5" y2="530.5" class="net_19"/>
  <line x1="296" x2="329" y1="273" y2="273" class="net_20"/>
  <line x1="329" x2="329" y1="273" y2="86.5" class="net_20"/>
  <circle cx="329" cy="273" r="2" style="fill:#000" class="net_20"/>
  <line x1="329" x2="361" y1="86.5" y2="86.5" class="net_20"/>
  <line x1="296" x2="329" y1="273" y2="273" class="net_20"/>
  <line x1="329" x2="329" y1="273" y2="217" class="net_20"/>
  <circle cx="329" cy="217" r="2" style="fill:#000" class="net_20"/>
  <line x1="329" x2="361" y1="217" y2="217" class="net_20"/>
  <line x1="296" x2="329" y1="273" y2="273" class="net_20"/>
  <line x1="329" x2="329" y1="273" y2="241" class="net_20"/>
  <line x1="329" x2="417" y1="241" y2="241" class="net_20"/>
  <line x1="417" x2="417" y1="241" y2="194.5" class="net_20"/>
  <circle cx="329" cy="241" r="2" style="fill:#000" class="net_20"/>
  <line x1="417" x2="447" y1="194.5" y2="194.5" class="net_20"/>
  <line x1="296" x2="329" y1="273" y2="273" class="net_20"/>
  <line x1="329" x2="329" y1="273" y2="515.5" class="net_20"/>
  <circle cx="329" cy="515.5" r="2" style="fill:#000" class="net_20"/>
  <line x1="329" x2="362" y1="515.5" y2="515.5" class="net_20"/>
  <line x1="296" x2="329" y1="273" y2="273" class="net_20"/>
  <line x1="329" x2="329" y1="273" y2="565.5" class="net_20"/>
  <line x1="329" x2="447" y1="565.5" y2="565.5" class="net_20"/>
  <line x1="146" x2="183" y1="500.5" y2="500.5" class="net_4"/>
  <line x1="183" x2="183" y1="500.5" y2="202" class="net_4"/>
  <circle cx="183" cy="500.5" r="2" style="fill:#000" class="net_4"/>
  <line x1="183" x2="276" y1="202" y2="202" class="net_4"/>
  <line x1="146" x2="183" y1="500.5" y2="500.5" class="net_4"/>
  <line x1="183" x2="183" y1="500.5" y2="389" class="net_4"/>
  <circle cx="183" cy="389" r="2" style="fill:#000" class="net_4"/>
  <line x1="183" x2="273" y1="389" y2="389" class="net_4"/>
  <line x1="146" x2="263" y1="500.5" y2="500.5" class="net_4"/>
  <line x1="263" x2="263" y1="500.5" y2="458.5" class="net_4"/>
  <circle cx="263" cy="500.5" r="2" style="fill:#000" class="net_4"/>
  <line x1="263" x2="361" y1="458.5" y2="458.5" class="net_4"/>
  <line x1="146" x2="362" y1="500.5" y2="500.5" class="net_4"/>
  <line x1="301" x2="361" y1="202" y2="202" class="net_22"/>
  <line x1="301" x2="349" y1="202" y2="202" class="net_22"/>
  <line x1="349" x2="349" y1="202" y2="147.5" class="net_22"/>
  <line x1="349" x2="437" y1="147.5" y2="147.5" class="net_22"/>
  <line x1="437" x2="437" y1="147.5" y2="94" class="net_22"/>
  <circle cx="349" cy="202" r="2" style="fill:#000" class="net_22"/>
  <circle cx="437" cy="147.5" r="2" style="fill:#000" class="net_22"/>
  <line x1="437" x2="447" y1="94" y2="94" class="net_22"/>
  <line x1="301" x2="349" y1="202" y2="202" class="net_22"/>
  <line x1="349" x2="349" y1="202" y2="147.5" class="net_22"/>
  <line x1="349" x2="449" y1="147.5" y2="147.5" class="net_22"/>
  <line x1="301" x2="349" y1="202" y2="202" class="net_22"/>
  <line x1="349" x2="349" y1="202" y2="186" class="net_22"/>
  <circle cx="349" cy="186" r="2" style="fill:#000" class="net_22"/>
  <line x1="349" x2="447" y1="186" y2="186" class="net_22"/>
  <line x1="479" x2="563" y1="35.5" y2="35.5" class="net_18"/>
  <line x1="479" x2="493" y1="35.5" y2="35.5" class="net_18"/>
  <line x1="493" x2="493" y1="35.5" y2="71.5" class="net_18"/>
  <circle cx="493" cy="35.5" r="2" style="fill:#000" class="net_18"/>
  <line x1="493" x2="563" y1="71.5" y2="71.5" class="net_18"/>
  <line x1="397" x2="407" y1="79" y2="79" class="net_21"/>
  <line x1="407" x2="407" y1="79" y2="12" class="net_21"/>
  <line x1="407" x2="503" y1="12" y2="12" class="net_21"/>
  <line x1="503" x2="503" y1="12" y2="44" class="net_21"/>
  <circle cx="407" cy="79" r="2" style="fill:#000" class="net_21"/>
  <line x1="503" x2="563" y1="44" y2="44" class="net_21"/>
  <line x1="397" x2="447" y1="79" y2="79" class="net_21"/>
  <line x1="397" x2="407" y1="209.5" y2="209.5" class="net_23"/>
  <line x1="407" x2="407" y1="209.5" y2="162.5" class="net_23"/>
  <line x1="407" x2="503" y1="162.5" y2="162.5" class="net_23"/>
  <line x1="503" x2="503" y1="162.5" y2="52.5" class="net_23"/>
  <circle cx="407" cy="209.5" r="2" style="fill:#000" class="net_23"/>
  <line x1="503" x2="563" y1="52.5" y2="52.5" class="net_23"/>
  <line x1="397" x2="407" y1="209.5" y2="209.5" class="net_23"/>
  <line x1="407" x2="407" y1="209.5" y2="408" class="net_23"/>
  <line x1="407" x2="450" y1="408" y2="408" class="net_23"/>
  <line x1="483" x2="563" y1="86.5" y2="86.5" class="net_24"/>
  <line x1="397" x2="449" y1="296.5" y2="296.5" class="net_25"/>
  <line x1="397" x2="417" y1="296.5" y2="296.5" class="net_25"/>
  <line x1="417" x2="417" y1="296.5" y2="389" class="net_25"/>
  <circle cx="417" cy="296.5" r="2" style="fill:#000" class="net_25"/>
  <line x1="417" x2="447" y1="389" y2="389" class="net_25"/>
  <line x1="479" x2="513" y1="304" y2="304" class="net_26"/>
  <line x1="513" x2="513" y1="304" y2="125" class="net_26"/>
  <circle cx="513" cy="304" r="2" style="fill:#000" class="net_26"/>
  <line x1="513" x2="568" y1="125" y2="125" class="net_26"/>
  <line x1="479" x2="513" y1="304" y2="304" class="net_26"/>
  <line x1="513" x2="513" y1="304" y2="254" class="net_26"/>
  <circle cx="513" cy="254" r="2" style="fill:#000" class="net_26"/>
  <line x1="513" x2="566" y1="254" y2="254" class="net_26"/>
  <line x1="479" x2="566" y1="304" y2="304" class="net_26"/>
  <line x1="479" x2="568" y1="140" y2="140" class="net_27"/>
  <line x1="309" x2="339" y1="346.5" y2="346.5" class="net_28"/>
  <line x1="339" x2="339" y1="346.5" y2="366.5" class="net_28"/>
  <circle cx="339" cy="346.5" r="2" style="fill:#000" class="net_28"/>
  <circle cx="339" cy="366.5" r="2" style="fill:#000" class="net_28"/>
  <line x1="339" x2="361" y1="366.5" y2="366.5" class="net_28"/>
  <line x1="309" x2="339" y1="346.5" y2="346.5" class="net_28"/>
  <line x1="339" x2="339" y1="346.5" y2="175" class="net_28"/>
  <line x1="339" x2="417" y1="175" y2="175" class="net_28"/>
  <line x1="417" x2="417" y1="175" y2="177.5" class="net_28"/>
  <line x1="417" x2="447" y1="177.5" y2="177.5" class="net_28"/>
  <line x1="309" x2="339" y1="346.5" y2="346.5" class="net_28"/>
  <line x1="339" x2="339" y1="346.5" y2="550.5" class="net_28"/>
  <line x1="339" x2="447" y1="550.5" y2="550.5" class="net_28"/>
  <line x1="309" x2="361" y1="381.5" y2="381.5" class="net_29"/>
  <line x1="397" x2="447" y1="374" y2="374" class="net_30"/>
  <line x1="397" x2="407" y1="451" y2="451" class="net_32"/>
  <line x1="407" x2="407" y1="451" y2="465" class="net_32"/>
  <line x1="407" x2="447" y1="465" y2="465" class="net_32"/>
  <line x1="483" x2="493" y1="381.5" y2="381.5" class="net_31"/>
  <line x1="493" x2="493" y1="381.5" y2="169" class="net_31"/>
  <circle cx="493" cy="381.5" r="2" style="fill:#000" class="net_31"/>
  <line x1="493" x2="563" y1="169" y2="169" class="net_31"/>
  <line x1="483" x2="493" y1="381.5" y2="381.5" class="net_31"/>
  <line x1="493" x2="493" y1="381.5" y2="465" class="net_31"/>
  <line x1="493" x2="563" y1="465" y2="465" class="net_31"/>
  <line x1="483" x2="523" y1="473.5" y2="473.5" class="net_33"/>
  <line x1="523" x2="523" y1="473.5" y2="177.5" class="net_33"/>
  <circle cx="523" cy="473.5" r="2" style="fill:#000" class="net_33"/>
  <line x1="523" x2="563" y1="177.5" y2="177.5" class="net_33"/>
  <line x1="483" x2="563" y1="473.5" y2="473.5" class="net_33"/>
  <line x1="483" x2="563" y1="186" y2="186" class="net_34"/>
  <line x1="483" x2="533" y1="416.5" y2="416.5" class="net_35"/>
  <line x1="533" x2="533" y1="416.5" y2="269" class="net_35"/>
  <line x1="533" x2="566" y1="269" y2="269" class="net_35"/>
  <line x1="397" x2="407" y1="508" y2="508" class="net_36"/>
  <line x1="407" x2="407" y1="508" y2="515.5" class="net_36"/>
  <line x1="407" x2="450" y1="515.5" y2="515.5" class="net_36"/>
  <line x1="483" x2="543" y1="523" y2="523" class="net_37"/>
  <line x1="543" x2="543" y1="523" y2="289" class="net_37"/>
  <line x1="543" x2="566" y1="289" y2="289" class="net_37"/>
  <line x1="483" x2="553" y1="558" y2="558" class="net_38"/>
  <line x1="553" x2="553" y1="558" y2="482" class="net_38"/>
  <line x1="553" x2="563" y1="482" y2="482" class="net_38"/>
  <line x1="635" x2="652" y1="127.5" y2="127.5" class="net_8,9,10,11,12,13,14"/>
  <line x1="599" x2="629.5" y1="44" y2="44" class="net_8"/>
  <line x1="629.5" x2="629.5" y1="44" y2="117" class="net_8"/>
  <line x1="599" x2="619" y1="79" y2="79" class="net_9"/>
  <line x1="619" x2="619" y1="79" y2="137.5" class="net_9"/>
  <line x1="619" x2="629" y1="137.5" y2="137.5" class="net_9"/>
  <line x1="595" x2="609" y1="132.5" y2="132.5" class="net_10"/>
  <line x1="609" x2="609" y1="132.5" y2="157.5" class="net_10"/>
  <line x1="609" x2="629" y1="157.5" y2="157.5" class="net_10"/>
  <line x1="599" x2="629" y1="177.5" y2="177.5" class="net_11"/>
  <line x1="599" x2="609" y1="261.5" y2="261.5" class="net_12"/>
  <line x1="609" x2="609" y1="261.5" y2="197.5" class="net_12"/>
  <line x1="609" x2="629" y1="197.5" y2="197.5" class="net_12"/>
  <line x1="599" x2="619" y1="296.5" y2="296.5" class="net_13"/>
  <line x1="619" x2="619" y1="296.5" y2="217.5" class="net_13"/>
  <line x1="619" x2="629" y1="217.5" y2="217.5" class="net_13"/>
  <line x1="599" x2="629.5" y1="473.5" y2="473.5" class="net_14"/>
  <line x1="629.5" x2="629.5" y1="473.5" y2="238" class="net_14"/>
  <line x1="40" x2="141" y1="450.5" y2="450.5" class="net_4,5,6,7"/>
</svg>
