<svg xmlns="http://www.w3.org/2000/svg" xmlns:xlink="http://www.w3.org/1999/xlink" xmlns:s="https://github.com/nturley/netlistsvg" width="242" height="104">
  <style>svg {
    stroke:#000;
    fill:none;
  }
  text {
    fill:#000;
    stroke:none;
    font-size:10px;
    font-weight: bold;
    font-family: "Courier New", monospace;
  }
  .nodelabel {
    text-anchor: middle;
  }
  .inputPortLabel {
    text-anchor: end;
  }
  .splitjoinBody {
    fill:#000;
  }
  .noninv {
    fill:#EEF;
  }</style>
  <g s:type="XOR2" transform="translate(90.66666666666667,17.5)" s:width="33" s:height="25" id="cell_$abc$51$auto$blifparse.cc:371:parse_blif$52">
    <s:alias val="XOR2"/>
    <s:alias val="XOR2_X1"/>
    <s:alias val="XOR2_X2"/>
    <s:alias val="XOR2_X4"/>
    <path d="M3,0 A30 25 0 0 1 3,25 A30 25 0 0 0 33,12.5 A30 25 0 0 0 3,0"/>
    <path d="M0,0 A30 25 0 0 1 0,25"/>
    <g s:x="3" s:y="5" s:pid="A"/>
    <g s:x="3" s:y="20" s:pid="B"/>
    <g s:x="33" s:y="12.5" s:pid="Z"/>
  </g>
  <g s:type="XNOR2" transform="translate(89,62.5)" s:width="33" s:height="25" id="cell_$abc$51$auto$blifparse.cc:371:parse_blif$53">
    <s:alias val="XNOR2"/>
    <s:alias val="XNOR2_X1"/>
    <s:alias val="XNOR2_X2"/>
    <s:alias val="XNOR2_X2"/>
    <path d="M3,0 A30 25 0 0 1 3,25 A30 25 0 0 0 33,12.5 A30 25 0 0 0 3,0"/>
    <path d="M0,0 A30 25 0 0 1 0,25"/>
    <circle cx="35" cy="12.5" r="3"/>
    <g s:x="3" s:y="5" s:pid="A"/>
    <g s:x="3" s:y="20" s:pid="B"/>
    <g s:x="38" s:y="12.5" s:pid="ZN"/>
  </g>
  <g s:type="XNOR2" transform="translate(147,25)" s:width="33" s:height="25" id="cell_$abc$51$auto$blifparse.cc:371:parse_blif$54">
    <s:alias val="XNOR2"/>
    <s:alias val="XNOR2_X1"/>
    <s:alias val="XNOR2_X2"/>
    <s:alias val="XNOR2_X2"/>
    <path d="M3,0 A30 25 0 0 1 3,25 A30 25 0 0 0 33,12.5 A30 25 0 0 0 3,0"/>
    <path d="M0,0 A30 25 0 0 1 0,25"/>
    <circle cx="35" cy="12.5" r="3"/>
    <g s:x="3" s:y="5" s:pid="A"/>
    <g s:x="3" s:y="20" s:pid="B"/>
    <g s:x="38" s:y="12.5" s:pid="ZN"/>
  </g>
  <g s:type="inputExt" transform="translate(12,22.5)" s:width="30" s:height="20" id="cell_n">
    <text x="15" y="-4" class="nodelabel" s:attribute="ref">n</text>
    <s:alias val="$_inputExt_"/>
    <path d="M0,0 L0,20 L15,20 L30,10 L15,0 Z"/>
    <g s:x="28" s:y="10" s:pid="Y"/>
  </g>
  <g s:type="outputExt" transform="translate(200,27.5)" s:width="30" s:height="20" id="cell_out">
    <text x="15" y="-4" class="nodelabel" s:attribute="ref">out</text>
    <s:alias val="$_outputExt_"/>
    <path d="M30,0 L30,20 L15,20 L0,10 L15,0 Z"/>
    <g s:x="0" s:y="10" s:pid="A"/>
  </g>
  <g s:type="split" transform="translate(57,12)" s:width="5" s:height="40" id="cell_$split$,4,5,6,7,">
    <rect width="5" height="80" class="splitjoinBody" s:generic="body"/>
    <s:alias val="$_split_"/>
    <g s:x="0" s:y="20" s:pid="in"/>
    <g transform="translate(4,10)" s:x="4" s:y="10" s:pid="out0">
      <text x="5" y="-4">0</text>
    </g>
    <g transform="translate(4,30)" s:x="4" s:y="10" s:pid="out0">
      <text x="5" y="-4">1</text>
    </g>
    <g transform="translate(4,50)" s:x="4" s:y="10" s:pid="out0">
      <text x="5" y="-4">3</text>
    </g>
    <g transform="translate(4,70)" s:x="4" s:y="10" s:pid="out0">
      <text x="5" y="-4">2</text>
    </g>
  </g>
  <line x1="62" x2="93.66666666666667" y1="22.5" y2="22.5" class="net_4"/>
  <line x1="62" x2="79" y1="42.5" y2="42.5" class="net_5"/>
  <line x1="79" x2="79" y1="42.5" y2="37.5" class="net_5"/>
  <line x1="79" x2="93.66666666666667" y1="37.5" y2="37.5" class="net_5"/>
  <line x1="62" x2="79" y1="62.5" y2="62.5" class="net_7"/>
  <line x1="79" x2="79" y1="62.5" y2="67.5" class="net_7"/>
  <line x1="79" x2="92" y1="67.5" y2="67.5" class="net_7"/>
  <line x1="62" x2="92" y1="82.5" y2="82.5" class="net_6"/>
  <line x1="123.66666666666667" x2="150" y1="30" y2="30" class="net_9"/>
  <line x1="127" x2="137" y1="75" y2="75" class="net_10"/>
  <line x1="137" x2="137" y1="75" y2="45" class="net_10"/>
  <line x1="137" x2="150" y1="45" y2="45" class="net_10"/>
  <line x1="185" x2="200" y1="37.5" y2="37.5" class="net_8"/>
  <line x1="40" x2="57" y1="32.5" y2="32.5" class="net_4,5,6,7"/>
</svg>
